<?xml version="1.0" encoding="UTF-8"?>
<!DOCTYPE svg PUBLIC "-//W3C//DTD SVG 1.1//EN" "http://www.w3.org/Graphics/SVG/1.1/DTD/svg11.dtd">
<!-- Creator: CorelDRAW X8 -->
<svg xmlns="http://www.w3.org/2000/svg" xml:space="preserve" width="42mm" height="42mm" version="1.1" style="shape-rendering:geometricPrecision; text-rendering:geometricPrecision; image-rendering:optimizeQuality; fill-rule:evenodd; clip-rule:evenodd"
viewBox="0 0 4200 4200"
 xmlns:xlink="http://www.w3.org/1999/xlink">
 <defs>
  <style type="text/css">
   <![CDATA[
    .fil0 {fill:#FEFEFE;fill-rule:nonzero}
   ]]>
  </style>
 </defs>
 <g id="Layer_x0020_1">
  <metadata id="CorelCorpID_0Corel-Layer"/>
  <g id="_1739407101216">
   <path class="fil0" d="M2328 2554c1,2 3,5 4,8 2,2 4,4 6,6 2,2 4,4 7,6 2,2 5,3 8,4 2,1 5,2 8,3 3,0 6,1 9,1 3,0 6,-1 9,-1 3,-1 6,-2 8,-3 3,-1 6,-2 8,-4 3,-2 5,-4 7,-6 2,-2 4,-4 6,-6 1,-3 3,-6 4,-8 1,-3 2,-6 2,-9 1,-3 1,-6 1,-9 0,-3 0,-6 -1,-9 0,-2 -1,-5 -2,-8 -1,-3 -3,-5 -4,-8 -2,-2 -4,-5 -6,-7 -2,-2 -4,-4 -7,-5 -2,-2 -5,-3 -8,-5 -2,-1 -5,-2 -8,-2 -6,-1 -12,-1 -18,0 -3,0 -6,1 -8,2 -3,2 -6,3 -8,5 -3,1 -5,3 -7,5 -2,2 -4,5 -6,7 -1,3 -3,5 -4,8 -1,3 -2,6 -3,8 0,3 0,6 0,9 0,3 0,6 0,9 1,3 2,6 3,9z"/>
   <path class="fil0" d="M1611 2326c1,0 2,0 3,0 6,1 12,1 18,1 1,0 3,0 5,0 7,1 15,1 22,1 7,0 15,0 22,-1 2,0 4,0 6,0 6,0 11,0 17,-1 1,0 2,0 3,0l0 355 -96 0 0 -355 0 0zm-582 -708l91 0c6,292 245,528 539,528 294,0 533,-236 539,-528l91 0c-6,314 -242,572 -546,613 -5,1 -11,2 -16,2 -1,0 -2,1 -3,1 -7,0 -13,1 -20,1 -1,1 -2,1 -3,1 -6,0 -12,0 -18,1 -1,0 -2,0 -3,0 -14,0 -28,0 -42,0 -1,0 -1,0 -2,0 -7,-1 -13,-1 -19,-1 -1,0 -2,0 -2,-1 -7,0 -14,-1 -21,-1 -1,0 -1,0 -2,-1 -6,0 -12,-1 -18,-2 -303,-41 -539,-299 -545,-613zm247 -535c0,-30 24,-54 53,-54 29,0 53,24 53,54l0 116c0,29 -24,53 -53,53 -29,0 -53,-24 -53,-53l0 -116zm766 116c0,29 -23,53 -53,53 -29,0 -53,-24 -53,-53l0 -116c0,-30 24,-54 53,-54 30,0 53,24 53,54l0 116zm328 1463c-25,0 -45,20 -45,45l0 153c0,171 -140,311 -311,311 -172,0 -311,-140 -311,-311l0 -88 50 0c25,0 45,-20 45,-45l0 -413c331,-65 582,-357 582,-707l0 -34c0,-25 -21,-46 -46,-46l-45 0 0 -386c0,-25 -21,-46 -46,-46l-110 0 0 -12c0,-80 -64,-144 -144,-144 -79,0 -144,64 -144,144l0 116c0,79 65,144 144,144 80,0 144,-65 144,-144l0 -13 65 0 0 341 -45 0c-25,0 -46,21 -46,46l0 34c0,248 -201,449 -448,449 -247,0 -448,-201 -448,-449l0 -34c0,-25 -20,-46 -46,-46l-45 0 0 -341 65 0 0 13c0,79 65,144 144,144 79,0 144,-65 144,-144l0 -116c0,-80 -65,-144 -144,-144 -79,0 -144,64 -144,144l0 12 -110 0c-25,0 -46,21 -46,46l0 386 -45 0c-25,0 -45,21 -45,46l0 34c0,350 250,642 581,707l0 413c0,25 21,45 46,45l46 0 0 88c0,221 180,401 402,401 221,0 401,-180 401,-401l0 -153c0,-25 -20,-45 -45,-45z"/>
   <path class="fil0" d="M2921 3169c-137,0 -249,-112 -249,-249 0,-138 112,-250 249,-250 138,0 250,112 250,250 0,137 -112,249 -250,249zm43 -587l0 -410c0,-176 -143,-320 -320,-320 -176,0 -319,144 -319,320l0 199c0,25 20,45 45,45 25,0 45,-20 45,-45l0 -199c0,-126 103,-229 229,-229 127,0 229,103 229,229l0 411c-165,23 -292,165 -292,337 0,187 153,340 340,340 188,0 340,-153 340,-340 0,-173 -130,-317 -297,-338z"/>
   <path class="fil0" d="M2921 3000c-44,0 -80,-36 -80,-80 0,-45 36,-81 80,-81 44,0 81,36 81,81 0,44 -37,80 -81,80zm0 -251c-94,0 -171,76 -171,171 0,94 77,171 171,171 95,0 171,-77 171,-171 0,-95 -76,-171 -171,-171z"/>
  </g>
 </g>
</svg>
