<?xml version="1.0" encoding="UTF-8"?>
<!DOCTYPE svg PUBLIC "-//W3C//DTD SVG 1.1//EN" "http://www.w3.org/Graphics/SVG/1.1/DTD/svg11.dtd">
<!-- Creator: CorelDRAW X8 -->
<svg xmlns="http://www.w3.org/2000/svg" xml:space="preserve" width="42mm" height="42mm" version="1.1" style="shape-rendering:geometricPrecision; text-rendering:geometricPrecision; image-rendering:optimizeQuality; fill-rule:evenodd; clip-rule:evenodd"
viewBox="0 0 4200 4200"
 xmlns:xlink="http://www.w3.org/1999/xlink">
 <defs>
  <style type="text/css">
   <![CDATA[
    .fil0 {fill:#FEFEFE;fill-rule:nonzero}
   ]]>
  </style>
 </defs>
 <g id="Layer_x0020_1">
  <metadata id="CorelCorpID_0Corel-Layer"/>
  <g id="_1703572184864">
   <path class="fil0" d="M3047 2972l0 -85c0,-45 37,-78 79,-78 46,0 79,36 79,78l0 85c0,46 -36,79 -79,79 -45,3 -79,-33 -79,-79zm-121 -357l-1018 0 0 -119 1018 0 0 119zm-57 587l-188 0 0 -339c0,-18 -12,-30 -30,-30l-216 0c-3,0 -6,0 -6,0 -3,0 -6,0 -6,0l-215 0c-18,0 -30,12 -30,30l0 339 -206 0 0 -527 900 0 0 527 -3 0zm-249 0l-154 0 0 -309 154 0 0 309zm-230 0l-155 0 0 -309 155 0 0 309zm-485 0l-491 0 0 -1572 673 0 0 803c0,0 0,0 0,3l-209 0c-18,0 -30,12 -30,30l0 179c0,18 12,30 30,30l30 0 0 527 -3 0zm912 -766l-672 0c0,0 0,0 0,-3l0 -803 672 0 0 806zm-1463 -867l0 -142 1524 0 0 142 -1524 0zm-279 1361l0 -161c0,-36 30,-67 67,-67 36,0 66,31 66,67l0 161c0,36 -30,66 -66,66 -37,0 -67,-30 -67,-66zm2197 272l-115 0 0 -91c63,-15 109,-69 109,-136l0 -88c0,-78 -64,-139 -140,-139 -79,0 -139,64 -139,139l0 85c0,67 48,124 109,136l0 91 -167 0 0 -524 28 0c18,0 30,-12 30,-30l0 -179c0,-18 -12,-30 -30,-30l-79 0c0,0 0,0 0,-3l0 -803 30 0c18,0 30,-12 30,-30l0 -203c0,-19 -12,-31 -30,-31l-1584 0c-19,0 -31,12 -31,31l0 203c0,18 12,30 31,30l30 0 0 1569 -179 0 0 -145c55,-15 97,-64 97,-124l0 -161c0,-70 -58,-127 -127,-127 -70,0 -127,57 -127,127l0 161c0,60 42,109 96,124l0 145 -154 0c-18,0 -30,12 -30,31 0,18 12,30 30,30l2312 0c18,0 30,-12 30,-30 0,-16 -12,-28 -30,-28z"/>
   <path class="fil0" d="M2275 1790c-18,0 -30,13 -30,31l0 136c0,18 12,30 30,30 18,0 30,-12 30,-30l0 -136c0,-18 -12,-31 -30,-31z"/>
   <path class="fil0" d="M2472 1790c-18,0 -30,13 -30,31l0 136c0,18 12,30 30,30 18,0 30,-12 30,-30l0 -136c0,-18 -12,-31 -30,-31z"/>
   <path class="fil0" d="M2669 1790c-18,0 -31,13 -31,31l0 136c0,18 13,30 31,30 18,0 30,-12 30,-30l0 -136c0,-18 -12,-31 -30,-31z"/>
   <path class="fil0" d="M2275 2148c-18,0 -30,12 -30,30l0 137c0,18 12,30 30,30 18,0 30,-12 30,-30l0 -137c0,-18 -12,-30 -30,-30z"/>
   <path class="fil0" d="M2472 2148c-18,0 -30,12 -30,30l0 137c0,18 12,30 30,30 18,0 30,-12 30,-30l0 -137c0,-18 -12,-30 -30,-30z"/>
   <path class="fil0" d="M2669 2148c-18,0 -31,12 -31,30l0 137c0,18 13,30 31,30 18,0 30,-12 30,-30l0 -137c0,-18 -12,-30 -30,-30z"/>
   <path class="fil0" d="M1542 1790c-19,0 -31,13 -31,31l0 136c0,18 12,30 31,30 18,0 30,-12 30,-30l0 -136c0,-18 -15,-31 -30,-31z"/>
   <path class="fil0" d="M1739 1790c-19,0 -31,13 -31,31l0 136c0,18 12,30 31,30 18,0 30,-12 30,-30l0 -136c0,-18 -15,-31 -30,-31z"/>
   <path class="fil0" d="M1936 1987c18,0 30,-12 30,-30l0 -136c0,-18 -12,-31 -30,-31 -19,0 -31,13 -31,31l0 136c0,15 15,30 31,30z"/>
   <path class="fil0" d="M1542 2148c-19,0 -31,12 -31,30l0 137c0,18 12,30 31,30 18,0 30,-12 30,-30l0 -137c0,-18 -15,-30 -30,-30z"/>
   <path class="fil0" d="M1739 2148c-19,0 -31,12 -31,30l0 137c0,18 12,30 31,30 18,0 30,-12 30,-30l0 -137c0,-18 -15,-30 -30,-30z"/>
   <path class="fil0" d="M1936 2345c18,0 30,-12 30,-30l0 -137c0,-18 -12,-30 -30,-30 -19,0 -31,12 -31,30l0 137c0,15 15,30 31,30z"/>
   <path class="fil0" d="M1542 2506c-19,0 -31,12 -31,30l0 136c0,18 12,30 31,30 18,0 30,-12 30,-30l0 -136c0,-18 -15,-30 -30,-30z"/>
   <path class="fil0" d="M1739 2506c-19,0 -31,12 -31,30l0 136c0,18 12,30 31,30 18,0 30,-12 30,-30l0 -136c0,-18 -15,-30 -30,-30z"/>
   <path class="fil0" d="M1542 2863c-19,0 -31,12 -31,30l0 137c0,18 12,30 31,30 18,0 30,-12 30,-30l0 -137c0,-18 -15,-30 -30,-30z"/>
   <path class="fil0" d="M1739 2863c-19,0 -31,12 -31,30l0 137c0,18 12,30 31,30 18,0 30,-12 30,-30l0 -137c0,-18 -15,-30 -30,-30z"/>
   <path class="fil0" d="M1263 1057c9,-3 15,-6 18,-12l24 -39 25 39c3,6 12,12 18,12l45 12 -30 37c-6,6 -6,15 -6,21l3 45 -43 -18c-3,0 -6,-3 -12,-3 -3,0 -9,0 -12,3l-42 18 3 -45c0,-9 -3,-15 -6,-21l-31 -37 46 -12zm-70 76l-6 82c0,9 3,21 12,27 6,3 12,6 18,6 3,0 10,0 13,-3l75 -30 76 30c9,3 21,3 30,-3 9,-6 12,-15 12,-27l-6 -82 55 -64c6,-9 9,-18 6,-30 -3,-9 -12,-18 -21,-21l-79 -21 -42 -70c-6,-9 -16,-15 -25,-15 -9,0 -21,6 -24,15l-42 70 -79 21c-9,3 -18,9 -21,21 -3,9 0,21 6,30l42 64z"/>
   <path class="fil0" d="M1663 1057c9,-3 15,-6 18,-12l24 -39 25 39c3,6 12,12 18,12l45 12 -30 37c-6,3 -6,9 -6,18l3 45 -43 -18c-3,0 -6,-3 -12,-3 -6,0 -9,0 -12,3l-42 18 3 -45c0,-9 -3,-15 -6,-21l-31 -37 46 -9zm-70 76l-6 82c0,9 3,21 12,27 9,6 18,6 31,3l75 -30 76 30c3,0 6,3 12,3 6,0 12,-3 18,-6 9,-6 12,-15 12,-27l-6 -82 55 -64c6,-9 9,-18 6,-30 -3,-9 -12,-18 -21,-21l-79 -21 -42 -70c-13,-18 -40,-18 -52,0l-48 73 -79 21c-9,3 -18,9 -21,21 -3,9 0,21 6,30l51 61z"/>
   <path class="fil0" d="M2063 1057c9,-3 15,-6 18,-12l24 -39 24 39c3,6 13,12 19,12l45 12 -30 37c-6,6 -6,15 -6,21l3 45 -43 -18c-3,0 -6,-3 -12,-3 -3,0 -9,0 -12,3l-42 18 3 -45c0,-9 -3,-15 -6,-21l-31 -37 46 -12zm-70 76l-6 82c0,9 3,21 12,27 9,6 18,6 30,3l76 -30 76 30c3,0 6,3 12,3 6,0 12,-3 18,-6 9,-6 12,-15 12,-27l-6 -82 55 -64c6,-9 9,-18 6,-30 -3,-9 -12,-18 -21,-21l-79 -21 -43 -70c-6,-9 -15,-15 -24,-15 -9,0 -21,6 -24,15l-42 70 -79 21c-9,3 -18,9 -21,21 -3,9 0,21 6,30l42 64z"/>
   <path class="fil0" d="M2463 1057c9,-3 15,-6 18,-12l24 -39 24 39c3,6 12,12 19,12l45 12 -30 37c-6,6 -6,15 -6,21l3 45 -43 -18c-6,-3 -15,-3 -21,0l-42 18 3 -45c0,-9 -3,-15 -6,-21l-31 -37 43 -12zm-70 76l-6 82c0,9 3,21 12,27 9,6 18,6 30,3l76 -30 76 30c3,0 6,3 12,3 6,0 12,-3 18,-6 9,-6 12,-15 12,-27l-6 -82 55 -64c6,-9 9,-18 6,-30 -3,-9 -12,-18 -21,-21l-82 -18 -43 -70c-12,-18 -39,-18 -51,0l-43 70 -78 21c-9,3 -18,9 -22,21 -3,12 0,21 7,30l48 61z"/>
   <path class="fil0" d="M2863 1057c9,-3 15,-6 18,-12l24 -39 24 39c3,6 12,12 18,12l46 12 -30 37c-6,6 -6,15 -6,21l3 45 -43 -18c-3,0 -6,-3 -12,-3 -3,0 -9,0 -12,3l-42 18 3 -45c0,-9 -3,-15 -6,-21l-31 -37 46 -12zm-70 76l-6 82c0,9 3,21 12,27 9,6 18,6 30,3l76 -30 76 30c3,0 6,3 12,3 6,0 12,-3 18,-6 9,-6 12,-15 12,-27l-6 -82 55 -64c6,-9 9,-18 6,-30 -3,-9 -12,-18 -21,-21l-79 -21 -43 -70c-12,-18 -39,-18 -51,0l-43 70 -84 24c-9,3 -19,9 -22,21 -3,9 0,21 6,30l52 61z"/>
  </g>
 </g>
</svg>
