<?xml version="1.0" encoding="UTF-8"?>
<!DOCTYPE svg PUBLIC "-//W3C//DTD SVG 1.1//EN" "http://www.w3.org/Graphics/SVG/1.1/DTD/svg11.dtd">
<!-- Creator: CorelDRAW X8 -->
<svg xmlns="http://www.w3.org/2000/svg" xml:space="preserve" width="42mm" height="42mm" version="1.1" style="shape-rendering:geometricPrecision; text-rendering:geometricPrecision; image-rendering:optimizeQuality; fill-rule:evenodd; clip-rule:evenodd"
viewBox="0 0 4200 4200"
 xmlns:xlink="http://www.w3.org/1999/xlink">
 <defs>
  <style type="text/css">
   <![CDATA[
    .fil0 {fill:#FEFEFE;fill-rule:nonzero}
   ]]>
  </style>
 </defs>
 <g id="Layer_x0020_1">
  <metadata id="CorelCorpID_0Corel-Layer"/>
  <g id="_1739410988464">
   <path class="fil0" d="M2094 1262l6 0c74,0 133,60 133,134 0,73 -59,133 -133,133l-6 0c29,-38 47,-83 47,-133 0,-51 -18,-101 -47,-134zm221 134c0,-119 -96,-215 -215,-215l-174 0 0 79c73,0 133,59 133,133 0,74 -60,133 -133,133l0 85 174 0c119,0 215,-97 215,-215z"/>
   <path class="fil0" d="M1316 1521c26,0 46,21 46,46l82 0c0,-73 60,-133 133,-133 74,0 134,60 134,133l81 0c0,-118 -96,-215 -215,-215 -80,0 -151,45 -187,111 -21,-15 -47,-24 -74,-24 -70,0 -128,58 -128,128l82 0c0,-25 21,-46 46,-46z"/>
   <path class="fil0" d="M2536 1260c25,0 46,20 46,46l81 0c0,-74 60,-133 134,-133 73,0 133,59 133,133l82 0c0,-119 -97,-215 -215,-215 -81,0 -151,45 -188,110 -21,-14 -46,-23 -73,-23 -71,0 -128,57 -128,128l81 0c0,-26 21,-46 47,-46z"/>
   <path class="fil0" d="M3276 3010l-964 0 0 -93 964 0 0 93zm-1618 -1051l944 0 637 877 -944 0 -637 -877zm573 1051l-615 0 0 -93 223 0 0 -81 -223 0 0 -795 578 795 -181 0 0 81 218 0 0 93zm-697 -174l-164 0 164 -615 0 615zm0 174l-615 0 0 -93 615 0 0 93zm-55 -887l-194 713 -324 0 518 -713zm1879 887l0 -150 -715 -982 -1086 0 -720 982 0 150 -131 0 0 81 2788 0 0 -81 -136 0z"/>
   <polygon class="fil0" points="2187,2133 2274,2133 2274,2052 2187,2052 "/>
   <polygon class="fil0" points="1926,2133 2013,2133 2013,2052 1926,2052 "/>
   <polygon class="fil0" points="2448,2133 2536,2133 2536,2052 2448,2052 "/>
  </g>
 </g>
</svg>
