<?xml version="1.0" encoding="UTF-8"?>
<!DOCTYPE svg PUBLIC "-//W3C//DTD SVG 1.1//EN" "http://www.w3.org/Graphics/SVG/1.1/DTD/svg11.dtd">
<!-- Creator: CorelDRAW X8 -->
<svg xmlns="http://www.w3.org/2000/svg" xml:space="preserve" width="42mm" height="42mm" version="1.1" style="shape-rendering:geometricPrecision; text-rendering:geometricPrecision; image-rendering:optimizeQuality; fill-rule:evenodd; clip-rule:evenodd"
viewBox="0 0 4200 4200"
 xmlns:xlink="http://www.w3.org/1999/xlink">
 <defs>
  <style type="text/css">
   <![CDATA[
    .fil0 {fill:#FEFEFE;fill-rule:nonzero}
   ]]>
  </style>
 </defs>
 <g id="Layer_x0020_1">
  <metadata id="CorelCorpID_0Corel-Layer"/>
  <g id="_1739410996688">
   <path class="fil0" d="M2822 3062l0 -160 160 0 0 160 -160 0zm401 161l-2246 0 0 -80 2246 0 0 80zm-2085 -1203l481 0 0 1042 -481 0 0 -1042zm598 -201l-96 121 -523 0 -97 -121 716 0zm-719 -361l762 0 0 121 -802 0 0 -121 40 0zm40 -160l642 0 0 80 -642 0 0 -80zm-80 361l802 0 0 80 -802 0 0 -80zm2215 642l-192 320 -1301 0 0 -320 1493 0zm-370 401l160 0 0 120 -160 0 0 -120zm-281 120l0 -120 201 0 0 120 -201 0zm-682 0l-160 0 0 -120 160 0 0 120zm602 -120l0 120 -241 0 0 -120 241 0zm-321 0l0 120 -200 0 0 -120 200 0zm-441 360l0 -160 160 0 0 160 -160 0zm241 0l0 -160 200 0 0 160 -200 0zm280 0l0 -160 241 0 0 160 -241 0zm321 0l0 -160 201 0 0 160 -201 0zm521 -389l235 -392c4,-6 6,-14 6,-21l0 0c0,-13 -7,-27 -19,-34 -7,-4 -14,-6 -21,-6l-1564 0 0 -226 152 -190c2,-2 3,-5 5,-9 0,0 0,0 0,0 2,-5 3,-9 3,-14 0,-1 0,-1 0,-2l0 -361c0,-22 -18,-40 -40,-40 0,0 0,0 0,0l-40 0 0 -120c0,-22 -18,-40 -40,-40 0,0 0,0 0,0l-241 0 0 -161c0,-22 -18,-40 -40,-40 -22,0 -40,18 -40,40l0 161 -80 0 0 -281c0,-22 -18,-40 -40,-40 -22,0 -40,18 -40,40l0 281 -241 0c-22,0 -40,18 -40,40 0,0 0,0 0,0l0 120 -40 0c-22,0 -40,18 -40,40 0,0 0,0 0,0l0 361 0 0c0,1 0,1 0,2 0,5 1,9 3,14 0,0 0,0 0,0 2,4 4,7 6,9l151 190 0 1068 -80 0c-44,1 -80,36 -80,81l0 120c0,22 18,40 40,40 0,0 0,0 0,0l2326 0c22,0 40,-18 40,-40 0,0 0,0 0,0l0 -120c0,-45 -36,-80 -80,-81l-161 0 0 -389z"/>
   <path class="fil0" d="M1458 2260l-160 0 0 -80 160 0 0 80zm40 -160l-240 0c-22,0 -40,18 -40,40 0,0 0,0 0,0l0 161c0,22 18,40 40,40 0,0 0,0 0,0l240 0c23,0 41,-18 41,-40 0,0 0,0 0,0l0 -161c0,-22 -18,-40 -41,-40 0,0 0,0 0,0z"/>
   <path class="fil0" d="M1458 2581l-160 0 0 -80 160 0 0 80zm40 -160l-240 0c-22,0 -40,18 -40,40 0,0 0,0 0,0l0 160c0,22 18,40 40,40 0,0 0,0 0,0l240 0c23,0 41,-17 41,-40 0,0 0,0 0,0l0 -160c0,-22 -18,-40 -41,-40 0,0 0,0 0,0z"/>
   <path class="fil0" d="M1458 2902l-160 0 0 -80 160 0 0 80zm40 -160l-240 0c-22,0 -40,18 -40,40 0,0 0,0 0,0l0 160c0,22 18,40 40,40 0,0 0,0 0,0l240 0c23,0 41,-18 41,-40 0,0 0,0 0,0l0 -160c0,-22 -18,-40 -41,-40 0,0 0,0 0,0z"/>
  </g>
 </g>
</svg>
