<?xml version="1.0" encoding="utf-8"?>
<!-- Generator: Adobe Illustrator 21.0.0, SVG Export Plug-In . SVG Version: 6.00 Build 0)  -->
<svg version="1.1" id="Layer_1" xmlns="http://www.w3.org/2000/svg" xmlns:xlink="http://www.w3.org/1999/xlink" x="0px" y="0px"
	 viewBox="0 0 119.1 119.1" style="enable-background:new 0 0 119.1 119.1;" xml:space="preserve">
<style type="text/css">
	.st0{fill:#FEFEFE;}
</style>
<g id="Layer_x0020_1">
	<g id="_2025938374384">
		<path class="st0" d="M66.4,51.1H39.9c-0.6,0-1,0.5-1,1.1c0,0.6,0.5,1,1,1h26.4c0.6,0,1.1-0.5,1.1-1C67.5,51.5,67,51.1,66.4,51.1z"
			/>
		<path class="st0" d="M39.9,44.7h10.6c0.6,0,1.1-0.5,1.1-1s-0.5-1-1.1-1H39.9c-0.6,0-1,0.5-1,1S39.3,44.7,39.9,44.7z"/>
		<path class="st0" d="M67.5,60.6c0-0.6-0.5-1-1.1-1H39.9c-0.6,0-1,0.5-1,1c0,0.6,0.5,1.1,1,1.1h26.4C67,61.7,67.5,61.2,67.5,60.6z"
			/>
		<path class="st0" d="M59,69.1c0-0.6-0.5-1-1-1h-18c-0.6,0-1,0.5-1,1s0.5,1,1,1h18C58.5,70.1,59,69.6,59,69.1z"/>
		<path class="st0" d="M39.9,76.5c-0.6,0-1,0.5-1,1.1c0,0.6,0.5,1,1,1h14.8c0.6,0,1-0.5,1-1c0-0.6-0.5-1.1-1-1.1H39.9z"/>
		<path class="st0" d="M30.4,29.9h30.7v14.8h14.8v15.9H78V43.2L62.6,27.8H28.3v63.5h39.2v-2.1h-37V29.9z M63.2,31.4l11.2,11.2H63.2
			V31.4z"/>
		<path class="st0" d="M90.5,89.5l-6.3-6.6c1.9-2,3-4.7,3-7.7c0-6.3-5.1-11.4-11.4-11.4c-6.3,0-11.4,5.1-11.4,11.4
			c0,6.3,5.1,11.4,11.4,11.4c2.6,0,5-0.9,6.9-2.3l6.3,6.7c0.2,0.2,0.5,0.3,0.8,0.3c0.3,0,0.5-0.1,0.7-0.3
			C90.9,90.6,90.9,89.9,90.5,89.5z M66.4,75.2c0-5.1,4.2-9.3,9.3-9.3S85,70,85,75.2c0,5.1-4.2,9.3-9.3,9.3S66.4,80.3,66.4,75.2z"/>
	</g>
	<g id="_2025938374576">
	</g>
	<g id="_2025938373904">
	</g>
	<g id="_2025938374256">
	</g>
	<g id="_2025938374096">
	</g>
	<g id="_2025938374128">
	</g>
	<g id="_2025938375312">
	</g>
	<g id="_2025938373776">
	</g>
	<g id="_2025938371536">
	</g>
	<g id="_2025938372816">
	</g>
	<g id="_2025938373040">
	</g>
	<g id="_2025938372560">
	</g>
	<g id="_2025938372048">
	</g>
	<g id="_2025938371600">
	</g>
	<g id="_2025938372656">
	</g>
	<g id="_2025938370000">
	</g>
</g>
</svg>
