<?xml version="1.0" encoding="UTF-8"?>
<!DOCTYPE svg PUBLIC "-//W3C//DTD SVG 1.1//EN" "http://www.w3.org/Graphics/SVG/1.1/DTD/svg11.dtd">
<!-- Creator: CorelDRAW X8 -->
<svg xmlns="http://www.w3.org/2000/svg" xml:space="preserve" width="42mm" height="42mm" version="1.1" style="shape-rendering:geometricPrecision; text-rendering:geometricPrecision; image-rendering:optimizeQuality; fill-rule:evenodd; clip-rule:evenodd"
viewBox="0 0 4200 4200"
 xmlns:xlink="http://www.w3.org/1999/xlink">
 <defs>
  <style type="text/css">
   <![CDATA[
    .fil0 {fill:#FEFEFE;fill-rule:nonzero}
   ]]>
  </style>
 </defs>
 <g id="Layer_x0020_1">
  <metadata id="CorelCorpID_0Corel-Layer"/>
  <g id="_1703616454352">
   <path class="fil0" d="M2682 3318c-4,0 -7,0 -10,-1l-572 -152 -572 152c-3,1 -6,1 -9,2l-1 0c-3,-1 -7,-1 -10,-2l-543 -155c-17,-5 -28,-20 -28,-37l0 -2094c0,-12 5,-24 15,-31 10,-7 23,-10 34,-6l533 152 571 -153c3,0 6,-1 9,-1l2 0c3,0 6,1 9,1l349 93 -20 75 -339 -90 -572 152c-6,2 -13,2 -20,0l-494 -141 0 2013 505 145 571 -153c7,-2 13,-2 20,0l571 153 505 -145 0 -2013 -358 102 -21 -74 407 -116c11,-4 24,-1 34,6 10,7 15,19 15,31l0 2094c0,17 -11,32 -28,37l-543 155c-3,1 -7,1 -10,1z"/>
   <path class="fil0" d="M1427 2233c-34,0 -66,10 -94,28 -37,25 -63,63 -72,107 -8,45 1,90 26,127l140 211 140 -211c19,-28 29,-60 29,-94 0,-93 -76,-168 -169,-168zm0 581c-13,0 -25,-6 -32,-17l-173 -259c-36,-55 -49,-120 -37,-185 13,-64 51,-120 105,-156 41,-27 88,-42 137,-42 136,0 246,111 246,246 0,49 -14,97 -41,137l-173 259c-7,11 -19,17 -32,17z"/>
   <path class="fil0" d="M1427 2310c43,0 77,35 77,78 0,43 -34,77 -77,77 -43,0 -78,-34 -78,-77 0,-43 35,-78 78,-78z"/>
   <path class="fil0" d="M2488 2970l-1086 0 0 -78 1086 0c64,0 116,-52 116,-116 0,-64 -52,-117 -116,-117l-388 0c-107,0 -194,-87 -194,-194 0,-106 87,-193 194,-193l814 0c64,0 117,-53 117,-117 0,-64 -53,-116 -117,-116l-116 0c-107,0 -194,-87 -194,-194l0 -116 78 0 0 116c0,64 52,116 116,116l116 0c107,0 194,87 194,194 0,107 -87,194 -194,194l-814 0c-64,0 -116,52 -116,116 0,65 52,117 116,117l388 0c107,0 194,87 194,194 0,107 -87,194 -194,194z"/>
   <path class="fil0" d="M2875 1768l78 0 0 -62 -39 -39 -39 39 0 62zm117 77l-155 0c-22,0 -39,-17 -39,-39l0 -116c0,-10 4,-20 11,-27l78 -78c15,-15 40,-15 55,0l77 78c8,7 12,17 12,27l0 116c0,22 -18,39 -39,39z"/>
   <path class="fil0" d="M2231 1535l48 0 -24 -71 -24 71zm102 77l-155 0c-13,0 -25,-6 -32,-16 -7,-10 -9,-23 -5,-35l77 -232c6,-16 20,-27 37,-27 17,0 32,11 37,27l77 232c4,12 2,25 -5,35 -7,10 -19,16 -31,16z"/>
   <polygon class="fil0" points="2216,1690 2294,1690 2294,1574 2216,1574 "/>
   <path class="fil0" d="M2891 2814l47 0 -24 -71 -23 71zm101 78l-155 0c-13,0 -24,-6 -32,-16 -7,-10 -9,-23 -5,-35l77 -233c6,-16 21,-26 37,-26 17,0 32,10 37,26l78 233c4,12 2,25 -6,35 -7,10 -19,16 -31,16z"/>
   <polygon class="fil0" points="2875,2970 2953,2970 2953,2853 2875,2853 "/>
   <path class="fil0" d="M1642 1868l-85 -113 -85 113 -62 -46 116 -155c15,-20 48,-20 62,0l117 155 -63 46z"/>
   <path class="fil0" d="M1240 1867l-64 -43 155 -233c7,-11 19,-17 31,-17 13,-1 25,5 32,15l117 155 -62 47 -84 -111 -125 187z"/>
   <path class="fil0" d="M2061 2078l78 0 0 -62 -39 -39 -39 39 0 62zm117 77l-156 0c-21,0 -38,-17 -38,-39l0 -116c0,-10 4,-20 11,-27l78 -78c15,-15 39,-15 54,0l78 78c7,7 11,17 11,27l0 116c0,22 -17,39 -38,39z"/>
   <path class="fil0" d="M1921 1535l48 0 -24 -71 -24 71zm101 77l-155 0c-12,0 -24,-6 -31,-16 -7,-10 -9,-23 -5,-35l77 -232c5,-16 20,-27 37,-27 17,0 31,11 37,27l77 232c4,12 2,25 -5,35 -7,10 -19,16 -32,16z"/>
   <polygon class="fil0" points="1906,1690 1984,1690 1984,1574 1906,1574 "/>
   <path class="fil0" d="M2636 958c-33,0 -65,9 -92,27 -37,25 -62,62 -71,106 -8,43 0,87 25,124l138 207 137 -207c19,-27 28,-59 28,-92 0,-91 -74,-165 -165,-165zm0 571c-13,0 -25,-7 -32,-17l-169 -255c-36,-53 -49,-118 -36,-181 12,-63 49,-118 102,-154 40,-26 87,-41 135,-41 133,0 241,109 241,242 0,48 -14,95 -40,134l-170 255c-7,10 -19,17 -31,17z"/>
   <path class="fil0" d="M2636 1034c42,0 76,34 76,76 0,42 -34,76 -76,76 -42,0 -77,-34 -77,-76 0,-42 35,-76 77,-76z"/>
  </g>
 </g>
</svg>
