<?xml version="1.0" encoding="UTF-8"?>
<!DOCTYPE svg PUBLIC "-//W3C//DTD SVG 1.1//EN" "http://www.w3.org/Graphics/SVG/1.1/DTD/svg11.dtd">
<!-- Creator: CorelDRAW X8 -->
<svg xmlns="http://www.w3.org/2000/svg" xml:space="preserve" width="42mm" height="42mm" version="1.1" style="shape-rendering:geometricPrecision; text-rendering:geometricPrecision; image-rendering:optimizeQuality; fill-rule:evenodd; clip-rule:evenodd"
viewBox="0 0 4200 4200"
 xmlns:xlink="http://www.w3.org/1999/xlink">
 <defs>
  <style type="text/css">
   <![CDATA[
    .fil0 {fill:#FEFEFE;fill-rule:nonzero}
   ]]>
  </style>
 </defs>
 <g id="Layer_x0020_1">
  <metadata id="CorelCorpID_0Corel-Layer"/>
  <g id="_1703572190912">
   <path class="fil0" d="M2492 978l-1503 0 0 2215 2215 0 0 -2215 -712 0zm-791 2136l-633 0 0 -2056 633 0 0 2056zm712 0l-633 0 0 -2056 633 0 0 2056zm712 0l-633 0 0 -2056 633 0 0 2056z"/>
   <path class="fil0" d="M1622 1136l-475 0 0 871 475 0 0 -871zm-79 792l-317 0 0 -712 317 0 0 712z"/>
   <path class="fil0" d="M2334 1136l-475 0 0 871 475 0 0 -871zm-79 792l-317 0 0 -712 317 0 0 712z"/>
   <path class="fil0" d="M3046 1136l-475 0 0 871 475 0 0 -871zm-79 792l-317 0 0 -712 317 0 0 712z"/>
   <path class="fil0" d="M1384 2996c131,0 238,-107 238,-238 0,-131 -107,-237 -238,-237 -130,0 -237,106 -237,237 0,131 107,238 237,238zm0 -396c88,0 159,71 159,158 0,88 -71,158 -159,158 -87,0 -158,-70 -158,-158 0,-87 71,-158 158,-158z"/>
   <path class="fil0" d="M2096 2996c131,0 238,-107 238,-238 0,-131 -107,-237 -238,-237 -130,0 -237,106 -237,237 0,131 107,238 237,238zm0 -396c88,0 159,71 159,158 0,88 -71,158 -159,158 -87,0 -158,-70 -158,-158 0,-87 71,-158 158,-158z"/>
   <path class="fil0" d="M2809 2996c130,0 237,-107 237,-238 0,-131 -107,-237 -237,-237 -131,0 -238,106 -238,237 0,131 107,238 238,238zm0 -396c87,0 158,71 158,158 0,88 -71,158 -158,158 -88,0 -159,-70 -159,-158 0,-87 71,-158 159,-158z"/>
  </g>
 </g>
</svg>
