<?xml version="1.0" encoding="UTF-8"?>
<!DOCTYPE svg PUBLIC "-//W3C//DTD SVG 1.1//EN" "http://www.w3.org/Graphics/SVG/1.1/DTD/svg11.dtd">
<!-- Creator: CorelDRAW X8 -->
<svg xmlns="http://www.w3.org/2000/svg" xml:space="preserve" width="42mm" height="42mm" version="1.1" style="shape-rendering:geometricPrecision; text-rendering:geometricPrecision; image-rendering:optimizeQuality; fill-rule:evenodd; clip-rule:evenodd"
viewBox="0 0 4200 4200"
 xmlns:xlink="http://www.w3.org/1999/xlink">
 <defs>
  <style type="text/css">
   <![CDATA[
    .fil0 {fill:#FEFEFE;fill-rule:nonzero}
   ]]>
  </style>
 </defs>
 <g id="Layer_x0020_1">
  <metadata id="CorelCorpID_0Corel-Layer"/>
  <g id="_1703561087552">
   <path class="fil0" d="M1071 2918l1110 0c53,0 104,-15 145,-43l679 -677c29,-30 46,-70 46,-112 0,-43 -17,-82 -46,-112 -30,-30 -70,-47 -112,-47 -43,0 -83,17 -112,47l-524 523 502 -988c0,0 0,-1 1,-2 24,-28 68,-35 103,-15 20,11 34,29 40,51 6,20 3,41 -7,60 -4,6 -5,12 -5,19 0,14 7,27 19,35 19,11 44,4 55,-15 21,-38 72,-50 112,-27 40,24 56,74 34,112 -11,19 -4,43 15,54 6,3 13,5 19,5 14,0 27,-7 35,-20l0 0c71,-123 88,-264 48,-398 -39,-131 -129,-243 -254,-315 -260,-150 -576,-72 -721,178 0,0 0,0 0,0 -11,19 -4,44 15,55 19,10 43,4 54,-15 22,-38 73,-49 113,-26 20,11 34,29 40,50 6,21 4,43 -7,61 -3,6 -5,13 -5,19 0,14 7,27 20,35 19,11 43,4 54,-15 22,-38 72,-50 112,-26 20,11 34,29 40,50 6,21 4,42 -7,60 -3,5 -4,10 -4,16l-563 1106 -1044 0c-87,0 -158,71 -158,158 0,88 71,159 158,159zm1618 -1618c-43,-25 -92,-28 -134,-14 -1,-4 -2,-8 -3,-12 -12,-41 -40,-76 -77,-98 -18,-10 -37,-17 -57,-20 139,-116 342,-135 516,-35 175,101 260,287 229,465 -13,-15 -28,-29 -46,-39 -27,-15 -55,-22 -83,-22 -18,0 -35,2 -52,8 -1,-4 -2,-8 -3,-13 -12,-41 -39,-75 -76,-97 -43,-24 -92,-28 -135,-14 0,-4 -1,-8 -3,-12 -11,-41 -39,-75 -76,-97zm-1618 1380l1115 0 651 -650c29,-30 82,-30 112,0 15,15 23,35 23,56 0,21 -8,41 -23,56l-670 669c-28,18 -62,28 -98,28l-1110 0c-43,0 -79,-36 -79,-80 0,-43 36,-79 79,-79z"/>
   <path class="fil0" d="M3224 3074l-454 -453 507 -507c8,-8 12,-18 12,-28 0,-10 -4,-20 -12,-28 -15,-16 -41,-16 -56,0l-900 900 -1410 0 0 198 2279 0c1,0 2,-1 3,-1l28 29c8,8 18,11 28,11 10,0 20,-3 28,-11 8,-8 12,-18 12,-28 0,-10 -4,-21 -12,-28l-53 -54zm-510 -397l281 281 -562 0 281 -281zm-1723 399l0 -39 2083 0 40 39 -2123 0z"/>
   <path class="fil0" d="M1189 1452l82 0c7,58 30,110 64,154l-58 58c-16,16 -16,41 0,57 7,7 18,11 28,11 10,0 20,-4 28,-11l58 -59c44,35 96,57 154,65l0 82c0,21 18,39 40,39 22,0 39,-18 39,-39l0 -82c58,-8 111,-30 155,-65l58 59c8,7 18,11 28,11 10,0 20,-4 28,-11 15,-16 15,-41 0,-57l-58 -58c34,-44 57,-96 64,-154l82 0c22,0 40,-18 40,-40 0,-22 -18,-39 -40,-39l-82 0c-7,-58 -30,-111 -64,-155l58 -58c16,-15 16,-40 0,-56 -15,-15 -40,-15 -56,0l-58 58c-44,-34 -97,-57 -154,-64l0 -82c0,-22 -18,-40 -40,-40 -22,0 -40,18 -40,40l0 82c-57,7 -110,30 -154,64l-58 -58c-16,-15 -41,-15 -56,0 -16,16 -16,41 0,56l58 58c-34,44 -57,97 -64,155l-82 0c-22,0 -40,17 -40,39 0,22 18,40 40,40zm396 -277c131,0 238,106 238,237 0,131 -107,238 -238,238 -131,0 -238,-107 -238,-238 0,-131 107,-237 238,-237z"/>
  </g>
 </g>
</svg>
