<?xml version="1.0" encoding="UTF-8"?>
<!DOCTYPE svg PUBLIC "-//W3C//DTD SVG 1.1//EN" "http://www.w3.org/Graphics/SVG/1.1/DTD/svg11.dtd">
<!-- Creator: CorelDRAW X8 -->
<svg xmlns="http://www.w3.org/2000/svg" xml:space="preserve" width="42mm" height="42mm" version="1.1" style="shape-rendering:geometricPrecision; text-rendering:geometricPrecision; image-rendering:optimizeQuality; fill-rule:evenodd; clip-rule:evenodd"
viewBox="0 0 4200 4200"
 xmlns:xlink="http://www.w3.org/1999/xlink">
 <defs>
  <style type="text/css">
   <![CDATA[
    .fil0 {fill:#FEFEFE;fill-rule:nonzero}
   ]]>
  </style>
 </defs>
 <g id="Layer_x0020_1">
  <metadata id="CorelCorpID_0Corel-Layer"/>
  <path class="fil0" d="M3062 1454c-30,118 -106,243 -215,352 -117,117 -303,120 -424,10 -131,-118 -137,-321 -12,-446 109,-109 234,-185 352,-215 108,-27 199,-12 255,44 56,56 71,147 44,255zm-1496 1346l-149 -149 909 -820c13,16 27,32 43,46 5,5 11,10 17,14l-820 909zm1263 -138l-150 147 -504 -563 87 -96 567 512zm119 108l-161 161 -54 -61 156 -154 59 54zm83 75c1,0 1,1 1,1 54,46 58,127 8,177 -46,46 -125,51 -178,-8l-21 -24 167 -167 23 21zm-1574 75l-161 -160 61 -54 154 154 -54 60zm-85 94c0,1 -1,1 -1,1 -46,54 -127,58 -177,8 -50,-50 -46,-131 7,-177 1,0 1,-1 1,-1l34 -30 166 166 -30 33zm514 -1088c11,-9 22,-18 32,-28 10,-10 20,-21 28,-33l111 99 -75 68 -96 -106zm-312 -86l-29 -28 287 -287 29 28c79,79 79,208 0,287 -79,79 -207,80 -287,0zm1169 -764c-132,33 -270,117 -389,236 -118,119 -148,300 -73,450l-164 148 -132 -119c37,-102 11,-217 -67,-295 -51,-51 -365,-362 -427,-424 -16,-15 -41,-15 -57,1 -16,16 -16,41 0,57l340 337 -57 58 -341 -338c-15,-16 -41,-15 -57,0 -16,16 -16,42 0,58l341 337 -58 57 -340 -337c-16,-16 -42,-16 -58,0 -16,16 -15,42 0,58l341 337 -58 58 -340 -338c-16,-16 -42,-16 -58,0 -7,8 -11,18 -11,29 0,10 4,21 12,29 0,0 0,0 0,0l0 0c0,0 0,0 0,0 0,0 0,0 0,0 0,0 0,0 0,0 0,0 0,0 0,0 3,3 40,40 426,423 81,81 197,102 296,67l109 122 -773 697c-90,77 -94,214 -11,296 83,83 219,78 296,-12l688 -762c10,12 680,762 680,763 77,89 213,95 296,11 83,-82 78,-219 -12,-295 -44,-41 -721,-653 -769,-696l139 -153c149,74 331,46 450,-73 119,-119 203,-257 236,-389 34,-137 11,-256 -66,-332 -53,-54 -127,-82 -214,-81l-2 0c-36,0 -75,5 -116,15z"/>
 </g>
</svg>
