<?xml version="1.0" encoding="iso-8859-1"?>
<!-- Generator: Adobe Illustrator 18.0.0, SVG Export Plug-In . SVG Version: 6.00 Build 0)  -->
<!DOCTYPE svg PUBLIC "-//W3C//DTD SVG 1.1//EN" "http://www.w3.org/Graphics/SVG/1.1/DTD/svg11.dtd">
<svg xmlns="http://www.w3.org/2000/svg" xmlns:xlink="http://www.w3.org/1999/xlink" version="1.1" id="Capa_1" x="0px" y="0px" viewBox="0 0 466.978 466.978" style="enable-background:new 0 0 466.978 466.978;" xml:space="preserve" width="512px" height="512px">
<g>
	<path d="M402.352,401.769c-5.382,0-10.701,0.688-15.848,1.984V241.695l17.574,13.348c2.419,1.837,5.869,1.366,7.706-1.053   l17.305-22.784c0.882-1.162,1.267-2.626,1.069-4.071c-0.197-1.445-0.961-2.753-2.123-3.635L243.526,83.364   c-1.965-1.493-4.688-1.493-6.652,0l-60.693,46.096v-6.986h1.803c3.037,0,5.5-2.462,5.5-5.5V94.604c0-3.038-2.463-5.5-5.5-5.5   H99.791c-3.037,0-5.5,2.462-5.5,5.5v22.371c0,3.038,2.463,5.5,5.5,5.5h1.803v63.635l-49.229,37.39   c-1.162,0.882-1.926,2.19-2.123,3.635s0.188,2.91,1.069,4.071l17.306,22.784c1.082,1.425,2.724,2.174,4.384,2.174   c1.159,0,2.328-0.365,3.322-1.121L93.89,241.7v160.148c-0.768-0.04-1.535-0.079-2.312-0.079c-23.985,0-43.499,19.513-43.499,43.499   c0,3.038,2.463,5.5,5.5,5.5s5.5-2.462,5.5-5.5c0-17.92,14.579-32.499,32.499-32.499c14.376,0,26.863,9.227,31.073,22.96   c0.556,1.812,2.006,3.21,3.837,3.701c1.83,0.488,3.784,0.003,5.172-1.29c17.554-16.361,40.437-25.371,64.435-25.371   c24.116,0,47.082,9.086,64.666,25.585c1.186,1.112,2.804,1.645,4.416,1.45c1.614-0.193,3.061-1.09,3.95-2.45   c10.071-15.395,27.039-24.585,45.391-24.585c15.096,0,29.629,6.376,39.872,17.494c1.042,1.13,2.508,1.773,4.045,1.773   s3.004-0.643,4.045-1.773c10.243-11.118,24.776-17.494,39.872-17.494c21.691,0,41.248,12.876,49.822,32.804   c1.199,2.789,4.432,4.078,7.226,2.878c2.79-1.201,4.079-4.436,2.878-7.226C451.965,417.257,428.442,401.769,402.352,401.769z    M104.89,342.433h64.869c3.037,0,5.5-2.462,5.5-5.5s-2.463-5.5-5.5-5.5H104.89v-42.893h64.869c3.037,0,5.5-2.462,5.5-5.5   s-2.463-5.5-5.5-5.5H104.89v-42.893h270.614v42.893h-64.322c-3.037,0-5.5,2.462-5.5,5.5s2.463,5.5,5.5,5.5h64.322v42.893h-64.322   c-3.037,0-5.5,2.462-5.5,5.5s2.463,5.5,5.5,5.5h64.322v42.9H104.89V342.433z M117.658,223.648L240.2,130.577l122.542,93.071   H117.658z M105.291,100.104h67.192v11.371h-1.803h-63.587h-1.803V100.104z M112.594,122.474h52.587v15.341l-52.587,39.94V122.474z    M74.05,242.956l-10.652-14.024L240.2,94.65l176.803,134.282l-10.652,14.024L243.526,119.291c-1.965-1.493-4.688-1.493-6.652,0   L74.05,242.956z M358.435,418.789c-11.952-10.876-27.663-17.02-43.917-17.02c-19.958,0-38.553,9.032-50.886,24.443   c-18.945-15.806-42.694-24.443-67.537-24.443c-24.17,0-47.328,8.188-66.018,23.202c-5.323-10.173-14.391-17.691-25.188-21.124   v-7.513h270.614v11.254C369.3,410.394,363.524,414.158,358.435,418.789z" fill="#525252"/>
	<path d="M386.632,66.365c3.154-1.283,6.484-1.934,9.898-1.934c14.498,0,26.294,11.795,26.294,26.294   c0,10.909-6.864,20.808-17.081,24.632c-2.19,0.819-3.622,2.934-3.571,5.272c0.052,2.338,1.576,4.387,3.8,5.11   c4.659,1.513,9.506,2.281,14.406,2.281c25.695,0,46.6-20.905,46.6-46.6s-20.904-46.6-46.6-46.6c-16.79,0-32.351,9.1-40.609,23.749   c-1.149,2.038-0.883,4.58,0.663,6.335S384.466,67.245,386.632,66.365z M420.378,45.821c19.63,0,35.6,15.97,35.6,35.6   c0,18.736-14.548,34.138-32.941,35.502c6.748-6.857,10.788-16.229,10.788-26.196c0-19.956-15.754-36.301-35.478-37.251   C404.534,48.601,412.269,45.821,420.378,45.821z" fill="#525252"/>
	<path d="M291.381,253.607H189.019c-3.037,0-5.5,2.462-5.5,5.5v102.362c0,3.038,2.463,5.5,5.5,5.5h102.362   c3.037,0,5.5-2.462,5.5-5.5V259.107C296.881,256.07,294.418,253.607,291.381,253.607z M285.881,355.969h-91.362v-91.362h91.362   V355.969z" fill="#525252"/>
	<path d="M211.646,344.342h57.106c3.037,0,5.5-2.462,5.5-5.5v-57.107c0-3.038-2.463-5.5-5.5-5.5h-57.106c-3.037,0-5.5,2.462-5.5,5.5   v57.107C206.146,341.879,208.609,344.342,211.646,344.342z M217.146,315.788H234.7v17.553h-17.554V315.788z M245.7,333.342v-17.553   h17.553v17.553H245.7z M263.253,304.788H245.7v-17.554h17.553V304.788z M234.7,287.235v17.554h-17.554v-17.554H234.7z" fill="#525252"/>
	<path d="M7.052,27.21h54.282c2.526,0,4.582,2.055,4.582,4.581c0,8.591,6.989,15.581,15.581,15.581h35.671   c17.492,0,31.723,14.23,31.723,31.723c0,3.038,2.463,5.5,5.5,5.5s5.5-2.462,5.5-5.5c0-23.557-19.165-42.723-42.723-42.723H81.497   c-2.526,0-4.581-2.055-4.581-4.581c0-8.591-6.99-15.581-15.582-15.581H7.052c-3.037,0-5.5,2.462-5.5,5.5S4.015,27.21,7.052,27.21z" fill="#525252"/>
	<path d="M119.423,79.094c0,3.038,2.463,5.5,5.5,5.5s5.5-2.462,5.5-5.5c0-9.875-8.033-17.908-17.907-17.908H31.091   c-1.671,0-3.03-1.359-3.03-3.03c0-7.736-6.294-14.03-14.03-14.03H5.5c-3.037,0-5.5,2.462-5.5,5.5s2.463,5.5,5.5,5.5h8.53   c1.671,0,3.03,1.359,3.03,3.03c0,7.736,6.294,14.03,14.03,14.03h81.425C116.324,72.187,119.423,75.285,119.423,79.094z" fill="#525252"/>
	<path d="M208.334,196.966c0,3.038,2.463,5.5,5.5,5.5h52.732c3.037,0,5.5-2.462,5.5-5.5c0-17.571-14.295-31.866-31.866-31.866   S208.334,179.395,208.334,196.966z M260.331,191.466h-40.262c2.42-8.846,10.528-15.366,20.131-15.366   S257.911,182.62,260.331,191.466z" fill="#525252"/>
	<circle cx="39.621" cy="144.234" r="7.755" fill="#525252"/>
	<circle cx="58.233" cy="325.694" r="7.755" fill="#525252"/>
	<circle cx="312.587" cy="91.502" r="7.755" fill="#525252"/>
	<circle cx="427.357" cy="169.049" r="7.755" fill="#525252"/>
	<circle cx="416.5" cy="310.185" r="7.755" fill="#525252"/>
</g>
<g>
</g>
<g>
</g>
<g>
</g>
<g>
</g>
<g>
</g>
<g>
</g>
<g>
</g>
<g>
</g>
<g>
</g>
<g>
</g>
<g>
</g>
<g>
</g>
<g>
</g>
<g>
</g>
<g>
</g>
</svg>
