<?xml version="1.0" encoding="iso-8859-1"?>
<!-- Generator: Adobe Illustrator 19.0.0, SVG Export Plug-In . SVG Version: 6.00 Build 0)  -->
<svg xmlns="http://www.w3.org/2000/svg" xmlns:xlink="http://www.w3.org/1999/xlink" version="1.1" id="Capa_1" x="0px" y="0px" viewBox="0 0 496 496" style="enable-background:new 0 0 496 496;" xml:space="preserve" width="512px" height="512px">
<g>
	<g>
		<g>
			<path d="M16,312V104c0-13.232,10.768-24,24-24h336c13.232,0,24,10.768,24,24v136h16V104c0-22.056-17.944-40-40-40h-56V40     c0-22.056-17.944-40-40-40H136c-22.056,0-40,17.944-40,40v24H40C17.944,64,0,81.944,0,104v208c0,22.056,17.944,40,40,40h200v-16     H40C26.768,336,16,325.232,16,312z M272,16h8c13.232,0,24,10.768,24,24v24h-16V32h-16V16z M272,64H144V48h128V64z M160,16h96v16     h-96V16z M112,40c0-13.232,10.768-24,24-24h8v16h-16v32h-16V40z" fill="#525252"/>
			<path d="M176,288h64v-48h48v-64h-48v-48h-64v48h-48v64h48V288z M144,224v-32h48v-48h32v48h48v32h-48v48h-32v-48H144z" fill="#525252"/>
			<path d="M360,144c13.232,0,24-10.768,24-24V96h-16v24c0,4.416-3.584,8-8,8h-24c-4.416,0-8-3.584-8-8V96h-16v24     c0,13.232,10.768,24,24,24H360z" fill="#525252"/>
			<path d="M32,96v24c0,13.232,10.768,24,24,24h24c13.232,0,24-10.768,24-24V96H88v24c0,4.416-3.584,8-8,8H56c-4.416,0-8-3.584-8-8     V96H32z" fill="#525252"/>
			<path d="M135.152,270.4C120.216,253,112,230.832,112,208c0-52.936,43.064-96,96-96c22.832,0,45,8.216,62.4,23.152l10.424-12.144     C260.512,105.592,234.656,96,208,96c-61.76,0-112,50.24-112,112c0,26.656,9.592,52.512,27.008,72.824L135.152,270.4z" fill="#525252"/>
			<path d="M320,208c0-26.656-9.592-52.512-27.008-72.824L280.848,145.6C295.784,163,304,185.168,304,208c0,52.936-43.064,96-96,96     c-22.832,0-45-8.216-62.4-23.152l-10.424,12.144C155.488,310.408,181.344,320,208,320C269.76,320,320,269.76,320,208z" fill="#525252"/>
			<path d="M477.656,386.344l-11.312,11.312L476.688,408c2.136,2.144,3.312,4.976,3.312,8s-1.176,5.856-3.312,8L424,476.688     c-4.28,4.264-11.72,4.264-16,0l-10.344-10.344l-11.312,11.312L396.688,488c5.16,5.16,12.016,8,19.312,8s14.16-2.84,19.312-8     L488,435.312c5.16-5.16,8-12.016,8-19.312s-2.84-14.16-8-19.312L477.656,386.344z" fill="#525252"/>
			<path d="M496,336c0-7.296-2.84-14.16-8-19.312L435.312,264C425,253.688,407,253.688,396.688,264L376,284.688L355.312,264     C345,253.688,327,253.688,316.688,264L264,316.688c-5.16,5.16-8,12.016-8,19.312s2.84,14.16,8,19.312L284.688,376L264,396.688     c-5.16,5.16-8,12.016-8,19.312s2.84,14.16,8,19.312L316.688,488c5.16,5.16,12.016,8,19.312,8s14.16-2.84,19.312-8L488,355.312     C493.16,350.16,496,343.296,496,336z M275.312,344c-2.136-2.144-3.312-4.976-3.312-8s1.176-5.856,3.312-8L328,275.312     c4.28-4.264,11.72-4.264,16,0L364.688,296L296,364.688L275.312,344z M476.688,344L344,476.688c-4.28,4.264-11.72,4.264-16,0     L275.312,424c-2.136-2.144-3.312-4.976-3.312-8s1.176-5.856,3.312-8L408,275.312c2.144-2.136,4.976-3.312,8-3.312     s5.856,1.176,8,3.312L476.688,328c2.136,2.144,3.312,4.976,3.312,8S478.824,341.856,476.688,344z" fill="#525252"/>
			<rect x="384" y="320" width="16" height="16" fill="#525252"/>
			<rect x="352" y="352" width="16" height="16" fill="#525252"/>
			<rect x="384" y="352" width="16" height="16" fill="#525252"/>
			<rect x="416" y="352" width="16" height="16" fill="#525252"/>
			<rect x="320" y="384" width="16" height="16" fill="#525252"/>
			<rect x="352" y="384" width="16" height="16" fill="#525252"/>
			<rect x="384" y="384" width="16" height="16" fill="#525252"/>
			<rect x="352" y="416" width="16" height="16" fill="#525252"/>
		</g>
	</g>
</g>
<g>
</g>
<g>
</g>
<g>
</g>
<g>
</g>
<g>
</g>
<g>
</g>
<g>
</g>
<g>
</g>
<g>
</g>
<g>
</g>
<g>
</g>
<g>
</g>
<g>
</g>
<g>
</g>
<g>
</g>
</svg>
