<?xml version="1.0" encoding="iso-8859-1"?>
<!-- Generator: Adobe Illustrator 19.0.0, SVG Export Plug-In . SVG Version: 6.00 Build 0)  -->
<svg xmlns="http://www.w3.org/2000/svg" xmlns:xlink="http://www.w3.org/1999/xlink" version="1.1" id="Capa_1" x="0px" y="0px" viewBox="0 0 496 496" style="enable-background:new 0 0 496 496;" xml:space="preserve" width="512px" height="512px">
<g>
	<g>
		<g>
			<path d="M352,0H144v256h208V0z M336,240H160V16h176V240z" fill="#525252"/>
			<polygon points="320,192 304,192 304,208 192,208 192,48 304,48 304,176 320,176 320,32 176,32 176,224 320,224    " fill="#525252"/>
			<path d="M256,88c0-13.232-10.768-24-24-24s-24,10.768-24,24s10.768,24,24,24S256,101.232,256,88z M224,88c0-4.408,3.584-8,8-8     s8,3.592,8,8s-3.584,8-8,8S224,92.408,224,88z" fill="#525252"/>
			<path d="M264,192c13.232,0,24-10.768,24-24s-10.768-24-24-24s-24,10.768-24,24S250.768,192,264,192z M264,160     c4.416,0,8,3.592,8,8s-3.584,8-8,8c-4.416,0-8-3.592-8-8S259.584,160,264,160z" fill="#525252"/>
			<rect x="272" y="104" width="16" height="16" fill="#525252"/>
			<rect x="208" y="144" width="16" height="16" fill="#525252"/>
			<path d="M464,330.52c18.888-9.008,32-28.24,32-50.52c0-30.88-25.128-56-56-56c-29.856,0-54.256,23.504-55.848,52.968     c-7.288,8.664-43.984,48.304-109.608,57.184C268.792,325.624,259.04,320,248,320c-11.04,0-20.792,5.624-26.544,14.152     c-65.352-8.848-102.28-48.536-109.608-57.2C110.248,247.496,85.848,224,56,224c-30.872,0-56,25.12-56,56     c0,22.28,13.112,41.512,32,50.52V448H0v48h112v-48H80V330.52c1.896-0.904,3.736-1.912,5.512-3.016     C95.152,347.856,120.096,384,176,384c14.048,0,30.32-3.688,48.264-10.736C230.128,379.8,238.544,384,248,384     s17.872-4.2,23.736-10.736C289.68,380.312,305.952,384,320,384c55.904,0,80.848-36.144,90.488-56.496     c1.776,1.104,3.608,2.112,5.512,3.016V448h-32v48h112v-48h-32V330.52z M96,464v16H16v-16h16h48H96z M48,448V335.36     c2.624,0.376,5.28,0.64,8,0.64c2.72,0,5.376-0.264,8-0.64V448H48z M56,320c-22.056,0-40-17.944-40-40c0-22.056,17.944-40,40-40     c22.056,0,40,17.944,40,40C96,302.056,78.056,320,56,320z M176,368c-51.944,0-71.8-35.848-77.92-51.168     c4.896-5.592,8.712-12.136,11.088-19.344c16.88,16.456,52.408,43.84,107.08,52.048C216.184,350.36,216,351.152,216,352     c0,2.4,0.312,4.72,0.816,6.968C201.408,364.872,187.64,368,176,368z M248,368c-8.824,0-16-7.176-16-16c0-8.824,7.176-16,16-16     c8.824,0,16,7.176,16,16C264,360.824,256.824,368,248,368z M320,368c-11.64,0-25.408-3.128-40.816-9.032     C279.688,356.72,280,354.4,280,352c0-0.848-0.184-1.64-0.248-2.472c54.672-8.208,90.2-35.592,107.08-52.048     c2.376,7.208,6.192,13.76,11.088,19.344C391.792,332.16,371.936,368,320,368z M400,280c0-22.056,17.944-40,40-40     c22.056,0,40,17.944,40,40c0,22.056-17.944,40-40,40C417.944,320,400,302.056,400,280z M448,335.36V448h-16V335.36     c2.624,0.376,5.28,0.64,8,0.64C442.72,336,445.376,335.736,448,335.36z M480,464v16h-80v-16h16h48H480z" fill="#525252"/>
		</g>
	</g>
</g>
<g>
</g>
<g>
</g>
<g>
</g>
<g>
</g>
<g>
</g>
<g>
</g>
<g>
</g>
<g>
</g>
<g>
</g>
<g>
</g>
<g>
</g>
<g>
</g>
<g>
</g>
<g>
</g>
<g>
</g>
</svg>
