<?xml version="1.0" encoding="iso-8859-1"?>
<!-- Generator: Adobe Illustrator 19.0.0, SVG Export Plug-In . SVG Version: 6.00 Build 0)  -->
<svg xmlns="http://www.w3.org/2000/svg" xmlns:xlink="http://www.w3.org/1999/xlink" version="1.1" id="Capa_1" x="0px" y="0px" viewBox="0 0 512 512" style="enable-background:new 0 0 512 512;" xml:space="preserve" width="512px" height="512px">
<g>
	<g>
		<path d="M507.319,163.725c-6.999-12.354-23.254-16.828-35.586-9.842l-29.411,16.666c-3.964-21.152-11.781-39.117-23.19-52.454    c-13.943-16.297-33.009-25.401-55.357-26.502c-7.022-15.058-6.426-31.489-3.97-44.363h24.245c4.142,0,7.5-3.358,7.5-7.5    C391.55,17.823,373.727,0,351.82,0H160.179c-21.907,0-39.73,17.823-39.73,39.73c0,4.142,3.358,7.5,7.5,7.5h24.245    c2.456,12.874,3.052,29.305-3.97,44.363c-22.348,1.101-41.415,10.205-55.357,26.502c-11.409,13.336-19.226,31.302-23.19,52.454    c0,0-29.409-16.665-29.412-16.667c-12.38-7.016-28.58-2.515-35.585,9.844c-7.096,12.525-2.68,28.488,9.843,35.584l53.476,30.306    c0.461,4.369,1.032,8.792,1.733,13.27c8.942,57.074,34.645,111.531,70.776,156.389c15.755,19.561,33.459,37.097,52.689,52.229    c-3.563,4.13-10.384,10.719-22.739,18.797c-15.35,10.037-21.326,23.147-23.637,32.378c-1.168,4.668,2.474,9.321,7.275,9.321    c0,0,203.494,0,203.803,0c4.802,0,8.441-4.664,7.276-9.32c-2.31-9.23-8.285-22.341-23.637-32.379    c-12.355-8.078-19.176-14.667-22.739-18.797c19.228-15.13,36.932-32.667,52.694-52.235    c29.039-36.054,51.029-78.149,63.442-122.777c0,0,0.238-0.856,0.244-0.878c4.146-15.069,7.178-30.45,8.818-45.997l53.478-30.305    C509.999,192.214,514.416,176.252,507.319,163.725z M66.888,195.067c-0.255,5.526-0.306,11.072-0.133,16.602l-44.838-25.408    c-5.328-3.019-7.207-9.811-4.189-15.139c2.968-5.239,9.908-7.153,15.141-4.189l34.578,19.594    C67.193,189.328,67.021,192.185,66.888,195.067z M136.61,32.23C139.794,22.25,149.156,15,160.179,15h191.64    c11.023,0,20.385,7.25,23.568,17.23H136.61z M167.427,47.23h177.144c-2.153,13.007-2.478,28.801,2.968,44.247h-183.08    C169.905,76.031,169.58,60.237,167.427,47.23z M333.331,482.855c6.624,4.331,10.858,9.376,13.561,14.145H165.107    c2.704-4.77,6.938-9.814,13.561-14.145c17.048-11.146,25.24-20.253,28.945-25.408h96.773    C308.091,462.602,316.283,471.708,333.331,482.855z M306.016,442.447H205.983c-15.572-11.883-30.133-25.416-43.456-40.377h186.944    C336.148,417.032,321.586,430.566,306.016,442.447z M362.034,387.07H149.963c-4.32-5.485-8.486-11.134-12.462-16.898h236.996    C370.522,375.934,366.356,381.583,362.034,387.07z M384.255,355.172h-256.51c-14.254-23.28-25.784-48.643-33.683-74.048h323.875    C410.038,306.53,398.509,331.892,384.255,355.172z M429.449,224.336c-0.001,0.015,0,0.03-0.001,0.045    c-0.294,3.244-0.651,6.523-1.087,9.845H186.147h-0.001c-4.142,0-7.5,3.358-7.5,7.5c0,4.142,3.358,7.5,7.5,7.5h0.001h239.794    c-1.067,5.597-2.325,11.245-3.764,16.898H89.821c-1.439-5.654-2.697-11.302-3.764-16.898h70.5h0.001c4.142,0,7.5-3.358,7.5-7.5    c0-4.142-3.358-7.5-7.5-7.5h-0.001H83.638c-0.437-3.321-0.793-6.601-1.087-9.845c-0.001-0.015,0-0.03-0.001-0.045    c-1.303-14.493-1.197-28.297,0.315-41.028c0.019-0.155,0.011-0.308,0.02-0.463c2.757-22.718,9.995-41.692,21.379-54.998    c12.131-14.18,28.481-21.37,48.597-21.37h206.276c20.116,0,36.466,7.19,48.597,21.37c11.384,13.306,18.622,32.28,21.38,54.998    c0.009,0.155,0.002,0.308,0.02,0.463C430.646,196.039,430.752,209.843,429.449,224.336z M490.081,186.261l-44.838,25.408    c0.01-0.313,0.007-0.618,0.016-0.93c0.215-8.068,0.023-16.172-0.707-24.212c0,0,34.53-19.567,34.577-19.593    c5.265-2.983,12.156-1.081,15.141,4.186C497.288,176.45,495.409,183.242,490.081,186.261z" fill="#525252"/>
	</g>
</g>
<g>
</g>
<g>
</g>
<g>
</g>
<g>
</g>
<g>
</g>
<g>
</g>
<g>
</g>
<g>
</g>
<g>
</g>
<g>
</g>
<g>
</g>
<g>
</g>
<g>
</g>
<g>
</g>
<g>
</g>
</svg>
