<?xml version="1.0" encoding="iso-8859-1"?>
<!-- Generator: Adobe Illustrator 19.0.0, SVG Export Plug-In . SVG Version: 6.00 Build 0)  -->
<svg xmlns="http://www.w3.org/2000/svg" xmlns:xlink="http://www.w3.org/1999/xlink" version="1.1" id="Layer_1" x="0px" y="0px" viewBox="0 0 512.001 512.001" style="enable-background:new 0 0 512.001 512.001;" xml:space="preserve" width="512px" height="512px">
<g>
	<g>
		<path d="M161.213,287.745H76.227c-4.633,0-8.387,3.755-8.387,8.387s3.754,8.387,8.387,8.387h84.987    c4.633,0,8.387-3.755,8.387-8.387S165.846,287.745,161.213,287.745z" fill="#525252"/>
	</g>
</g>
<g>
	<g>
		<path d="M93.374,316.073H22.551c-3.186,0-5.777-2.592-5.777-5.778c0-3.186,2.591-5.778,5.777-5.778h29.82    c4.633,0,8.387-3.755,8.387-8.387c0-4.632-3.754-8.387-8.387-8.387h-29.82C10.117,287.745,0,297.862,0,310.297    c0,12.435,10.117,22.551,22.551,22.551h70.823c4.633,0,8.387-3.755,8.387-8.387S98.007,316.073,93.374,316.073z" fill="#525252"/>
	</g>
</g>
<g>
	<g>
		<path d="M127.666,316.073h-5.963c-4.633,0-8.387,3.755-8.387,8.387s3.754,8.387,8.387,8.387h5.963    c2.774,0,5.032,2.258,5.032,5.032c0,2.774-2.258,5.032-5.032,5.032H94.313c-12.845,0-23.296,10.451-23.296,23.296    c0,4.632,3.754,8.387,8.387,8.387c4.633,0,8.387-3.755,8.387-8.387c0-3.597,2.925-6.523,6.523-6.523h33.353    c12.023,0,21.806-9.782,21.806-21.806C149.472,325.856,139.689,316.073,127.666,316.073z" fill="#525252"/>
	</g>
</g>
<g>
	<g>
		<path d="M215.267,193.478H97.063c-14.116,0-25.601,11.486-25.601,25.602c0,14.117,11.486,25.601,25.601,25.601h118.204    c14.117,0,25.602-11.486,25.602-25.602S229.384,193.478,215.267,193.478z M215.267,227.909H97.063    c-4.868,0-8.827-3.961-8.827-8.829s3.96-8.827,8.827-8.827h118.204c4.869,0,8.829,3.961,8.829,8.829    S220.136,227.909,215.267,227.909z" fill="#525252"/>
	</g>
</g>
<g>
	<g>
		<path d="M461.132,140.644H420.3c1.01-2.748,1.561-5.712,1.561-8.806c0-14.104-11.475-25.579-25.579-25.579H229.726    c-1.582-34.213-29.905-61.562-64.503-61.562c-35.603,0-64.568,28.97-64.568,64.579s28.966,64.579,64.569,64.579    c16.046,0,31.189-5.816,43.034-16.437h129.623c-1.01,2.746-1.561,5.713-1.561,8.805c0,14.104,11.475,25.58,25.579,25.58h99.233    c14.103,0,25.579-11.475,25.579-25.58S475.235,140.644,461.132,140.644z M165.225,157.081c-26.354,0-47.794-21.446-47.794-47.805    c0-26.359,21.44-47.805,47.794-47.805c25.345,0,46.137,19.83,47.7,44.788h-40.826c-14.103,0-25.579,11.474-25.579,25.579    c0,12.584,9.137,23.067,21.123,25.183C166.839,157.06,166.034,157.081,165.225,157.081z M461.131,175.03h-99.233    c-4.855,0-8.805-3.951-8.805-8.806c0-4.855,3.95-8.805,8.805-8.805c4.633,0,8.387-3.755,8.387-8.387s-3.754-8.387-8.387-8.387    H172.098c-4.855,0-8.805-3.951-8.805-8.806c0-4.855,3.95-8.805,8.805-8.805h224.184c4.855,0,8.805,3.95,8.805,8.805    c0,4.855-3.95,8.806-8.805,8.806c-4.633,0-8.387,3.755-8.387,8.387s3.754,8.387,8.387,8.387h64.848    c4.855,0,8.805,3.95,8.805,8.805C469.936,171.079,465.986,175.03,461.131,175.03z" fill="#525252"/>
	</g>
</g>
<g>
	<g>
		<path d="M503.613,418.661h-18.652v-31.026C500.459,383.442,512,367.91,512,349.434c0-21.684-15.893-39.325-35.426-39.325    c-6.602,0-12.952,2.002-18.459,5.74c-5.507-3.738-11.857-5.74-18.459-5.74c-6.489,0-12.748,1.939-18.198,5.563    c-5.45-3.623-11.71-5.563-18.198-5.563c-19.534,0-35.426,17.641-35.426,39.325c0,18.476,11.541,34.008,27.039,38.202v31.026    h-15.947l-60.543-104.863l11.823-20.48c2.316-4.011,0.942-9.141-3.07-11.456c-4.013-2.317-9.142-0.94-11.456,3.07l-6.981,12.093    l-6.982-12.093c-2.316-4.012-7.448-5.384-11.456-3.07c-4.011,2.316-5.385,7.445-3.07,11.456l11.824,20.48l-36.971,64.036    l-31.317-54.247l10.59-18.34c2.316-4.011,0.942-9.141-3.07-11.456c-4.01-2.318-9.139-0.943-11.456,3.07l-5.751,9.959l-5.75-9.959    c-2.315-4.012-7.448-5.387-11.456-3.07c-4.011,2.316-5.385,7.445-3.07,11.456l10.592,18.347l-54.89,95.068h-50.306l-19.492-33.761    c-1.498-2.594-4.266-4.193-7.263-4.193s-5.765,1.599-7.263,4.193l-19.492,33.76H12.168c-4.633,0-8.387,3.755-8.387,8.387    s3.754,8.387,8.387,8.387h491.447c4.633,0,8.387-3.755,8.387-8.387S508.246,418.661,503.613,418.661z M72.016,418.661    l7.386-12.793l7.386,12.793H72.016z M238.472,418.661h-62.639l45.208-78.3l31.318,54.246L238.472,418.661z M295.861,418.661    l7.386-12.793l7.386,12.793H295.861z M330.002,418.661l-19.492-33.76c-1.498-2.594-4.266-4.193-7.263-4.193    c-2.997,0-5.765,1.599-7.263,4.193l-19.492,33.76h-18.652l50.858-88.089l50.858,88.089H330.002z M431.269,418.663h-19.624v-31.031    h0.001c3.454-0.928,6.763-2.408,9.812-4.434c3.049,2.027,6.357,3.506,9.811,4.434V418.663z M468.188,418.661h-20.144v-31.03    c3.554-0.955,6.951-2.493,10.072-4.612c3.121,2.119,6.517,3.658,10.072,4.612V418.661z M464.242,366.306    c-1.586-1.698-3.804-2.66-6.127-2.66c-2.323,0-4.542,0.963-6.127,2.66c-3.424,3.663-7.803,5.681-12.331,5.681    c-4.444,0-8.757-1.946-12.148-5.478c-1.581-1.648-3.766-2.58-6.051-2.58c-2.285,0-4.47,0.932-6.051,2.58    c-3.391,3.533-7.705,5.478-12.148,5.478c-10.286-0.001-18.652-10.118-18.652-22.552c0-12.435,8.367-22.552,18.652-22.552    c4.444,0,8.758,1.946,12.148,5.477c1.581,1.648,3.766,2.58,6.051,2.58c2.285,0,4.47-0.932,6.051-2.58    c3.389-3.533,7.705-5.477,12.148-5.477c4.529,0,8.908,2.017,12.331,5.681c1.586,1.698,3.804,2.66,6.127,2.66    c2.323,0,4.542-0.963,6.127-2.66c3.424-3.663,7.803-5.681,12.331-5.681c10.285,0,18.652,10.117,18.652,22.552    s-8.367,22.552-18.652,22.552C472.044,371.987,467.665,369.97,464.242,366.306z" fill="#525252"/>
	</g>
</g>
<g>
	<g>
		<path d="M503.613,450.53H12.168c-4.633,0-8.387,3.755-8.387,8.387c0,4.632,3.754,8.387,8.387,8.387h491.447    c4.633,0,8.387-3.755,8.387-8.387C512.001,454.286,508.246,450.53,503.613,450.53z" fill="#525252"/>
	</g>
</g>
<g>
</g>
<g>
</g>
<g>
</g>
<g>
</g>
<g>
</g>
<g>
</g>
<g>
</g>
<g>
</g>
<g>
</g>
<g>
</g>
<g>
</g>
<g>
</g>
<g>
</g>
<g>
</g>
<g>
</g>
</svg>
