<?xml version="1.0" encoding="iso-8859-1"?>
<!-- Generator: Adobe Illustrator 19.0.0, SVG Export Plug-In . SVG Version: 6.00 Build 0)  -->
<svg xmlns="http://www.w3.org/2000/svg" xmlns:xlink="http://www.w3.org/1999/xlink" version="1.1" id="Capa_1" x="0px" y="0px" viewBox="0 0 496.704 496.704" style="enable-background:new 0 0 496.704 496.704;" xml:space="preserve" width="512px" height="512px">
<g>
	<g>
		<g>
			<path d="M480.352,384.704h-44.104c2.272-2.608,4.336-5.432,6.008-8.56l48.64-91.2c3.568-6.696,5.456-14.24,5.456-21.84     c0-25.584-20.816-46.4-46.4-46.4h-2.56c-17.168,0-32.856,9.408-40.944,24.56l-38.544,72.28c0.264-2.912,0.448-5.856,0.448-8.84     c0-52.936-43.064-96-96-96c-52.936,0-96,43.064-96,96c0,33.368,17.136,62.792,43.048,80h-67.048c-8.824,0-16,7.176-16,16v32     c0,8.824,7.176,16,16,16h19.056l24,48h241.888l24-48h19.056c8.824,0,16-7.176,16-16v-32     C496.352,391.88,489.176,384.704,480.352,384.704z M420.568,248.8c5.296-9.928,15.576-16.096,26.824-16.096h2.56     c16.76,0,30.4,13.64,30.4,30.4c0,4.976-1.24,9.92-3.576,14.304l-22.008,41.264l-55.128-30.624L420.568,248.8z M371.928,340     l20.176-37.84l55.128,30.632l-19.104,35.816c-5.288,9.928-15.568,16.096-26.816,16.096h-2.56c-16.76,0-30.4-13.64-30.4-30.4     C368.352,349.328,369.592,344.384,371.928,340z M363.776,384.704h-38.48c10.808-7.176,20.064-16.48,27.208-27.304     C353.2,367.808,357.32,377.28,363.776,384.704z M272.352,224.704c44.112,0,80,35.888,80,80c0,10.832-2.184,21.152-6.104,30.584     l-104.48-104.48C251.2,226.888,261.52,224.704,272.352,224.704z M227.12,238.784l111.152,111.152     c-3.416,4.96-7.416,9.472-11.832,13.544L213.576,250.616C217.648,246.2,222.16,242.2,227.12,238.784z M192.352,304.704     c0-15.064,4.264-29.112,11.528-41.16l109.632,109.632c-12.048,7.264-26.096,11.528-41.16,11.528     C228.24,384.704,192.352,348.816,192.352,304.704z M480.352,432.704h-56v16h19.056l-16,32H205.296l-16-32h219.056v-16h-256v-32     h246.4h2.56h79.04V432.704z" fill="#525252"/>
			<path d="M22.624,224.704h8.76c13.08,0,25.376-5.096,34.624-14.344c6.224-6.224,14.512-9.656,23.312-9.656h1.376     c7.088,0,14.112,2.344,19.784,6.6l10.152,7.608c8.416,6.312,18.856,9.792,29.376,9.792h4.688c10.52,0,20.96-3.48,29.384-9.792     l10.152-7.616c5.664-4.248,12.688-6.592,19.776-6.592h1.376c4.728,0,9.32,0.992,13.632,2.952l6.608-14.568     c-6.4-2.904-13.216-4.376-20.24-4.376h-1.376c-10.52,0-20.96,3.48-29.384,9.792l-10.152,7.616     c-5.664,4.24-12.688,6.584-19.776,6.584h-4.688c-7.088,0-14.112-2.344-19.784-6.6l-10.152-7.608     c-8.416-6.312-18.856-9.792-29.376-9.792H89.32c-13.08,0-25.376,5.096-34.624,14.344c-6.224,6.224-14.512,9.656-23.312,9.656     H21.84l-5.488-112h64v-16h-80L0.36,97.096l19.568,399.608h148.424v-16H35.16L22.624,224.704z" fill="#525252"/>
			<polygon points="283.664,192.32 299.648,193.096 304.352,96.704 304.352,80.704 224.352,80.704 224.352,96.704 288.344,96.704         " fill="#525252"/>
			<path d="M152.352,176.704c30.88,0,56-25.12,56-56v-3.76c0-9.336-2.36-18.608-6.832-26.816L152.352,0l-49.168,90.136     c-4.472,8.2-6.832,17.464-6.832,26.808v3.76C96.352,151.584,121.472,176.704,152.352,176.704z M112.352,116.944     c0-6.672,1.688-13.296,4.88-19.152l35.12-64.384l35.12,64.376c3.192,5.864,4.88,12.488,4.88,19.16v3.76c0,22.056-17.944,40-40,40     c-22.056,0-40-17.944-40-40V116.944z" fill="#525252"/>
			<path d="M96.352,272.704c0-13.232-10.768-24-24-24s-24,10.768-24,24s10.768,24,24,24S96.352,285.936,96.352,272.704z      M72.352,280.704c-4.408,0-8-3.592-8-8c0-4.408,3.592-8,8-8s8,3.592,8,8C80.352,277.112,76.76,280.704,72.352,280.704z" fill="#525252"/>
			<rect x="128.352" y="320.704" width="16" height="16" fill="#525252"/>
			<rect x="64.352" y="400.704" width="16" height="16" fill="#525252"/>
			<path d="M156.352,127.64l8.016,13.84c7.392-4.28,11.984-12.24,11.984-20.776s-4.592-16.496-11.984-20.776l-8.016,13.84     c2.472,1.432,4,4.088,4,6.936C160.352,123.552,158.824,126.208,156.352,127.64z" fill="#525252"/>
		</g>
	</g>
</g>
<g>
</g>
<g>
</g>
<g>
</g>
<g>
</g>
<g>
</g>
<g>
</g>
<g>
</g>
<g>
</g>
<g>
</g>
<g>
</g>
<g>
</g>
<g>
</g>
<g>
</g>
<g>
</g>
<g>
</g>
</svg>
