<?xml version="1.0" encoding="iso-8859-1"?>
<!-- Generator: Adobe Illustrator 19.0.0, SVG Export Plug-In . SVG Version: 6.00 Build 0)  -->
<svg xmlns="http://www.w3.org/2000/svg" xmlns:xlink="http://www.w3.org/1999/xlink" version="1.1" id="Capa_1" x="0px" y="0px" viewBox="0 0 461.6 461.6" style="enable-background:new 0 0 461.6 461.6;" xml:space="preserve" width="512px" height="512px">
<g>
	<g>
		<path d="M277.6,54c-0.8-3.2-3.2-4.8-6.4-5.6l-21.6-3.2L240,26c-1.6-3.2-4-4.8-7.2-4.8s-6.4,1.6-7.2,4.8L216,45.2l-21.6,3.2    c-3.2,0.8-5.6,2.4-6.4,5.6c-0.8,3.2,0,6.4,2.4,8l15.2,15.2l-4,21.6c-0.8,3.2,0.8,6.4,3.2,8c1.6,0.8,3.2,1.6,4.8,1.6    c1.6,0,2.4,0,4-0.8l19.2-10.4l19.2,10.4c2.4,1.6,5.6,0.8,8.8-0.8c2.4-1.6,4-4.8,3.2-8l-4-21.6L275.2,62    C277.6,59.6,278.4,56.4,277.6,54z M245.6,68.4c-1.6,1.6-2.4,4.8-2.4,7.2l1.6,9.6l-8.8-4.8c-2.4-1.6-4.8-1.6-7.2,0l-8.8,4.8    l1.6-9.6c0.8-2.4-0.8-5.6-2.4-7.2L212,62l10.4-1.6c2.4,0,4.8-2.4,6.4-4l4-8.8l4,8.8c0.8,2.4,3.2,4,6.4,4l9.6,1.6L245.6,68.4z" fill="#525252"/>
	</g>
</g>
<g>
	<g>
		<path d="M182.4,154.8h-35.2c-4.8,0-8,3.2-8,8v28.8c0,4.8,3.2,8,8,8h35.2c4.8,0,8-3.2,8-8v-28.8    C190.4,158.8,187.2,154.8,182.4,154.8z M174.4,183.6h-19.2v-12.8h19.2V183.6z" fill="#525252"/>
	</g>
</g>
<g>
	<g>
		<path d="M247.2,154.8H212c-4.8,0-8,3.2-8,8v28.8c0,4.8,3.2,8,8,8h35.2c4.8,0,8-3.2,8-8v-28.8C255.2,158.8,252,154.8,247.2,154.8z     M239.2,183.6H220v-12.8h19.2V183.6z" fill="#525252"/>
	</g>
</g>
<g>
	<g>
		<path d="M312.8,154.8h-35.2c-4.8,0-8,3.2-8,8v28.8c0,4.8,3.2,8,8,8h35.2c4.8,0,8-3.2,8-8v-28.8    C320.8,158.8,316.8,154.8,312.8,154.8z M304.8,183.6h-19.2v-12.8h19.2V183.6z" fill="#525252"/>
	</g>
</g>
<g>
	<g>
		<path d="M182.4,214h-35.2c-4.8,0-8,3.2-8,8v28.8c0,4.8,3.2,8,8,8h35.2c4.8,0,8-3.2,8-8V222C190.4,217.2,187.2,214,182.4,214z     M174.4,242.8h-19.2V230h19.2V242.8z" fill="#525252"/>
	</g>
</g>
<g>
	<g>
		<path d="M247.2,214H212c-4.8,0-8,3.2-8,8v28.8c0,4.8,3.2,8,8,8h35.2c4.8,0,8-3.2,8-8V222C255.2,217.2,252,214,247.2,214z     M239.2,242.8H220V230h19.2V242.8z" fill="#525252"/>
	</g>
</g>
<g>
	<g>
		<path d="M312.8,214h-35.2c-4.8,0-8,3.2-8,8v28.8c0,4.8,3.2,8,8,8h35.2c4.8,0,8-3.2,8-8V222C320.8,217.2,316.8,214,312.8,214z     M304.8,242.8h-19.2V230h19.2V242.8z" fill="#525252"/>
	</g>
</g>
<g>
	<g>
		<path d="M182.4,272.4h-35.2c-4.8,0-8,3.2-8,8v28.8c0,4.8,3.2,8,8,8h35.2c4.8,0,8-3.2,8-8v-28.8    C190.4,275.6,187.2,272.4,182.4,272.4z M174.4,301.2h-19.2v-12.8h19.2V301.2z" fill="#525252"/>
	</g>
</g>
<g>
	<g>
		<path d="M247.2,272.4H212c-4.8,0-8,3.2-8,8v28.8c0,4.8,3.2,8,8,8h35.2c4.8,0,8-3.2,8-8v-28.8C255.2,275.6,252,272.4,247.2,272.4z     M239.2,301.2H220v-12.8h19.2V301.2z" fill="#525252"/>
	</g>
</g>
<g>
	<g>
		<path d="M312.8,272.4h-35.2c-4.8,0-8,3.2-8,8v28.8c0,4.8,3.2,8,8,8h35.2c4.8,0,8-3.2,8-8v-28.8    C320.8,275.6,316.8,272.4,312.8,272.4z M304.8,301.2h-19.2v-12.8h19.2V301.2z" fill="#525252"/>
	</g>
</g>
<g>
	<g>
		<path d="M400,234h-35.2c-4.8,0-8,3.2-8,8v28.8c0,4.8,3.2,8,8,8H400c4.8,0,8-3.2,8-8V242C408,237.2,404,234,400,234z M392,262.8    h-19.2V250H392V262.8z" fill="#525252"/>
	</g>
</g>
<g>
	<g>
		<path d="M400,298h-35.2c-4.8,0-8,3.2-8,8v28.8c0,4.8,3.2,8,8,8H400c4.8,0,8-3.2,8-8V306C408,301.2,404,298,400,298z M392,326.8    h-19.2V314H392V326.8z" fill="#525252"/>
	</g>
</g>
<g>
	<g>
		<path d="M95.2,234H60c-4.8,0-8,3.2-8,8v28.8c0,4.8,3.2,8,8,8h35.2c4.8,0,8-3.2,8-8V242C103.2,237.2,100,234,95.2,234z M87.2,262.8    H68V250h19.2V262.8z" fill="#525252"/>
	</g>
</g>
<g>
	<g>
		<path d="M95.2,298H60c-4.8,0-8,3.2-8,8v28.8c0,4.8,3.2,8,8,8h35.2c4.8,0,8-3.2,8-8V306C103.2,301.2,100,298,95.2,298z M87.2,326.8    H68V314h19.2V326.8z" fill="#525252"/>
	</g>
</g>
<g>
	<g>
		<path d="M452.8,424.4h-19.2v-216c0-4.8-3.2-8-8-8h-79.2v-61.6c0-9.6-8-17.6-17.6-17.6H130.4c-9.6,0-17.6,8-17.6,17.6v61.6H34.4    c-4.8,0-8,3.2-8,8v216H8c-4.8,0-8,3.2-8,8s3.2,8,8,8h26.4h87.2h9.6h62.4c4.8,0,8-3.2,8-8V358h57.6v74.4c0,4.8,3.2,8,8,8h0.8h61.6    h9.6h87.2h27.2c4.8,0,8-3.2,8-8S457.6,424.4,452.8,424.4z M113.6,422.8v1.6H42.4v-208h71.2V422.8z M331.2,207.6v215.2    c0,0.8-0.8,1.6-1.6,1.6h-54.4V350c0-4.8-3.2-8-8-8h-73.6c-4.8,0-8,3.2-8,8v74.4h-54.4c-0.8,0-1.6-0.8-1.6-1.6V207.6V138    c0-0.8,0.8-1.6,1.6-1.6h198.4c0.8,0,1.6,0.8,1.6,1.6V207.6z M417.6,423.6h-71.2v-0.8V215.6h71.2V423.6z" fill="#525252"/>
	</g>
</g>
<g>
</g>
<g>
</g>
<g>
</g>
<g>
</g>
<g>
</g>
<g>
</g>
<g>
</g>
<g>
</g>
<g>
</g>
<g>
</g>
<g>
</g>
<g>
</g>
<g>
</g>
<g>
</g>
<g>
</g>
</svg>
