<?xml version="1.0" encoding="iso-8859-1"?>
<!-- Generator: Adobe Illustrator 19.0.0, SVG Export Plug-In . SVG Version: 6.00 Build 0)  -->
<svg xmlns="http://www.w3.org/2000/svg" xmlns:xlink="http://www.w3.org/1999/xlink" version="1.1" id="Capa_1" x="0px" y="0px" viewBox="0 0 512 512" style="enable-background:new 0 0 512 512;" xml:space="preserve" width="512px" height="512px">
<g>
	<g>
		<path d="M504.5,380.765h-8.534V250.243c9.309-3.139,16.034-11.946,16.034-22.3c0-12.976-10.557-23.532-23.532-23.532H351.677    v-16.548c0-4.142-3.358-7.5-7.5-7.5h-32.581v-18.297c9.308-3.139,16.032-11.946,16.032-22.3c0-12.976-10.557-23.532-23.532-23.532    h-96.193c-12.976,0-23.532,10.557-23.532,23.532c0,10.354,6.724,19.16,16.032,22.3v18.297h-32.581c-4.142,0-7.5,3.358-7.5,7.5    v16.548H23.532C10.557,204.41,0,214.967,0,227.943c0,10.354,6.724,19.16,16.032,22.3v130.523H7.5c-4.142,0-7.5,3.358-7.5,7.5    c0,4.142,3.358,7.5,7.5,7.5h497c4.142,0,7.5-3.358,7.5-7.5C512,384.124,508.642,380.765,504.5,380.765z M160.323,380.765H31.032    v-33.097h129.291V380.765z M160.323,332.668h-25.081V316.12c0-4.142-3.358-7.5-7.5-7.5s-7.5,3.358-7.5,7.5v16.548h-17.064V316.12    c0-4.142-3.358-7.5-7.5-7.5c-4.142,0-7.5,3.358-7.5,7.5v16.548H71.113V316.12c0-4.142-3.358-7.5-7.5-7.5    c-4.142,0-7.5,3.358-7.5,7.5v16.548H31.032v-81.193h129.291V332.668z M160.323,236.475H23.532c-4.705,0-8.532-3.828-8.532-8.532    c0-4.705,3.828-8.533,8.532-8.533h136.791V236.475z M199.371,139.765c0-4.705,3.828-8.532,8.532-8.532h96.193    c4.705,0,8.532,3.828,8.532,8.532c0,4.705-3.828,8.532-8.532,8.532h-96.193C203.198,148.297,199.371,144.469,199.371,139.765z     M296.596,163.297v17.064h-81.193v-17.064H296.596z M200.404,380.765h-25.081v-33.097h25.081V380.765z M248.5,380.765h-33.097    v-33.097h0.001H248.5V380.765z M296.597,380.765H263.5v-33.097h33.097V380.765z M336.677,380.765h-25.08v-33.097h25.08V380.765z     M336.677,292.588H215.923c-4.142,0-7.5,3.358-7.5,7.5c0,4.142,3.358,7.5,7.5,7.5h120.754v25.081H175.323v-25.081h8.53    c4.142,0,7.5-3.358,7.5-7.5c0-4.142-3.358-7.5-7.5-7.5h-8.53v-25.081h161.354V292.588z M336.677,212.426h-8.53    c-4.142,0-7.5,3.358-7.5,7.5c0,4.142,3.358,7.5,7.5,7.5h8.53v25.081H175.323v-25.081h120.754c4.142,0,7.5-3.358,7.5-7.5    c0-4.142-3.358-7.5-7.5-7.5H175.323v-17.064h161.354V212.426z M480.966,380.765H351.677v-33.097h129.289V380.765z     M480.966,332.668L480.966,332.668h-25.08V316.12c0-4.142-3.358-7.5-7.5-7.5c-4.142,0-7.5,3.358-7.5,7.5v16.548h-17.063V316.12    c0-4.142-3.358-7.5-7.5-7.5c-4.142,0-7.5,3.358-7.5,7.5v16.548h-17.064V316.12c0-4.142-3.358-7.5-7.5-7.5    c-4.142,0-7.5,3.358-7.5,7.5v16.548h-25.082v-81.193h129.289V332.668z M488.468,236.474h-0.001c0,0,0,0-0.001,0H351.677v-17.065    h136.791v0.001c4.705,0,8.532,3.828,8.532,8.532C497,232.647,493.172,236.474,488.468,236.474z" fill="#525252"/>
	</g>
</g>
<g>
	<g>
		<path d="M63.613,268.539c-4.142,0-7.5,3.358-7.5,7.5v8.016c0,4.142,3.358,7.5,7.5,7.5c4.142,0,7.5-3.358,7.5-7.5v-8.016    C71.113,271.897,67.755,268.539,63.613,268.539z" fill="#525252"/>
	</g>
</g>
<g>
	<g>
		<path d="M127.742,268.539c-4.142,0-7.5,3.358-7.5,7.5v8.016c0,4.142,3.358,7.5,7.5,7.5c4.142,0,7.5-3.358,7.5-7.5v-8.016    C135.242,271.897,131.884,268.539,127.742,268.539z" fill="#525252"/>
	</g>
</g>
<g>
	<g>
		<path d="M95.677,268.539c-4.142,0-7.5,3.358-7.5,7.5v8.016c0,4.142,3.358,7.5,7.5,7.5c4.142,0,7.5-3.358,7.5-7.5v-8.016    C103.177,271.897,99.819,268.539,95.677,268.539z" fill="#525252"/>
	</g>
</g>
<g>
	<g>
		<path d="M448.386,268.54c-4.142,0-7.5,3.358-7.5,7.5v8.016c0,4.142,3.358,7.5,7.5,7.5c4.142,0,7.5-3.358,7.5-7.5v-8.016    C455.886,271.898,452.528,268.54,448.386,268.54z" fill="#525252"/>
	</g>
</g>
<g>
	<g>
		<path d="M384.259,268.54c-4.142,0-7.5,3.358-7.5,7.5v8.016c0,4.142,3.358,7.5,7.5,7.5c4.142,0,7.5-3.358,7.5-7.5v-8.016    C391.759,271.898,388.401,268.54,384.259,268.54z" fill="#525252"/>
	</g>
</g>
<g>
	<g>
		<path d="M416.323,268.54c-4.142,0-7.5,3.358-7.5,7.5v8.016c0,4.142,3.358,7.5,7.5,7.5c4.142,0,7.5-3.358,7.5-7.5v-8.016    C423.823,271.898,420.465,268.54,416.323,268.54z" fill="#525252"/>
	</g>
</g>
<g>
</g>
<g>
</g>
<g>
</g>
<g>
</g>
<g>
</g>
<g>
</g>
<g>
</g>
<g>
</g>
<g>
</g>
<g>
</g>
<g>
</g>
<g>
</g>
<g>
</g>
<g>
</g>
<g>
</g>
</svg>
