<?xml version="1.0" encoding="iso-8859-1"?>
<!-- Generator: Adobe Illustrator 19.0.0, SVG Export Plug-In . SVG Version: 6.00 Build 0)  -->
<svg xmlns="http://www.w3.org/2000/svg" xmlns:xlink="http://www.w3.org/1999/xlink" version="1.1" id="Capa_1" x="0px" y="0px" viewBox="0 0 511.998 511.998" style="enable-background:new 0 0 511.998 511.998;" xml:space="preserve" width="512px" height="512px">
<g>
	<g>
		<path d="M481.569,255.995" fill="#525252"/>
	</g>
</g>
<g>
	<g>
		<path d="M504.394,153.431h-50.175v-19.133c0-4.2-3.405-7.606-7.606-7.606h-23.994c-4.2,0-7.606,3.405-7.606,7.606v19.133h-41.318    c-4.2,0-7.606,3.405-7.606,7.606v48.753c0,4.2,3.405,7.606,7.606,7.606h41.318v92.708h-59.952V124.118    c0-31.768-25.753-57.521-57.521-57.521h-73.959V54.998c9.646-2.027,16.912-10.597,16.912-20.836v-14.83h11.635    c11.613,0,21.027,9.415,21.027,21.027v3.315c0,4.165,3.209,7.796,7.371,7.921c4.307,0.13,7.84-3.324,7.84-7.603V40.36    c0-20.014-16.224-36.239-36.239-36.239h-19.24h-36.124h-19.24c-20.014,0-36.238,16.224-36.238,36.238v3.315    c0,4.165,3.209,7.796,7.371,7.921c4.307,0.13,7.84-3.324,7.84-7.603V40.36c0-11.613,9.415-21.028,21.028-21.028h11.635v14.83    c0,11.039,8.445,20.14,19.213,21.189v11.246H132.11c-31.768,0-57.521,25.753-57.521,57.521v213.757    c0,15.656,6.295,29.866,16.479,40.247L1.646,495.411c-2.472,3.243-2.161,7.947,0.94,10.596c1.446,1.235,3.202,1.83,4.944,1.83    c2.291,0,4.557-1.032,6.054-2.995l89.471-117.353c1.738,1.022,3.535,1.952,5.384,2.79L44.585,496.307    c-2.167,3.598-1.007,8.272,2.592,10.439c1.228,0.739,2.58,1.091,3.916,1.091c2.579,0,5.095-1.312,6.523-3.683l27.794-46.152    h258.793l27.79,46.152c1.428,2.371,3.944,3.683,6.524,3.683c1.336,0,2.688-0.352,3.915-1.091    c3.599-2.167,4.759-6.841,2.593-10.439l-63.837-106.017c1.849-0.838,3.645-1.767,5.383-2.788l89.455,117.338    c1.497,1.964,3.762,2.996,6.054,2.996c1.743,0,3.503-0.597,4.949-1.836c3.097-2.65,3.404-7.351,0.934-10.592l-89.4-117.264    c3.08-3.137,5.81-6.618,8.112-10.389L496.12,505.858c1.463,1.352,3.314,2.02,5.16,2.02c2.047,0,4.089-0.821,5.588-2.444    c2.851-3.085,2.661-7.897-0.424-10.748L355.061,354.795v-16.919v-3.304l141.186,124.681c1.446,1.278,3.242,1.904,5.031,1.904    c2.105,0,4.201-0.869,5.704-2.572c2.781-3.148,2.482-7.955-0.666-10.735L367.559,325.314h55.061h23.994h54.35    c4.165,0,7.796-3.209,7.921-7.371c0.13-4.307-3.324-7.84-7.603-7.84h-47.064v-92.708h7.078c4.2,0,7.606-3.405,7.606-7.606    c0-4.2-3.405-7.606-7.606-7.606H381.3v-33.542h115.487v33.542h-5.066c-4.2,0-7.606,3.405-7.606,7.606    c0,4.2,3.405,7.606,7.606,7.606h12.672c4.2,0,7.606-3.405,7.606-7.606v-48.753C511.999,156.837,508.594,153.431,504.394,153.431z     M204.368,34.162v-14.83h20.913v14.83c0,3.355-2.729,6.083-6.083,6.083h-8.746C207.097,40.245,204.368,37.516,204.368,34.162z     M323.463,423.559l11.581,19.233H94.57l11.583-19.233H323.463z M258.135,395.396h39.405c2.915,0,5.779-0.222,8.578-0.642    l8.185,13.592h-198.99l8.188-13.596c2.809,0.423,5.683,0.646,8.608,0.646h39.405H258.135z M179.12,380.186v-7.867    c0-7.796,6.342-14.137,14.137-14.137h43.135c7.795,0,14.137,6.342,14.137,14.137v7.867H179.12z M339.85,337.875    c0,19.69-13.519,36.28-31.762,40.978c-0.011,0.003-0.023,0.005-0.036,0.008c-3.363,0.863-6.885,1.323-10.513,1.323h-31.799v-7.867    c0-16.183-13.166-29.349-29.349-29.349h-43.135c-16.183,0-29.349,13.166-29.349,29.349v7.867h-31.8    c-23.33,0-42.31-18.98-42.31-42.31V124.118c0-23.33,18.98-42.31,42.31-42.31h165.432c23.33,0,42.31,18.98,42.31,42.31V337.875z     M430.225,217.396h8.783v92.708h-8.783V217.396z M439.008,153.432h-8.783v-11.527h8.783V153.432z" fill="#525252"/>
	</g>
</g>
<g>
	<g>
		<path d="M319.324,127.101h-70.235c-3.486-15.71-17.52-27.497-34.265-27.497s-30.779,11.787-34.265,27.497h-70.23    c-4.2,0-7.606,3.405-7.606,7.606v36.888c0,4.2,3.405,7.606,7.606,7.606c4.2,0,7.606-3.405,7.606-7.606v-29.283h62.623    c3.484,15.712,17.52,27.501,34.265,27.501s30.781-11.789,34.265-27.501h62.628v116.789H117.935v-52.012    c0-4.2-3.405-7.606-7.606-7.606c-4.2,0-7.606,3.405-7.606,7.606v59.618c0.002,4.201,3.407,7.607,7.608,7.607h208.993    c4.2,0,7.606-3.405,7.606-7.606V134.706C326.93,130.506,323.524,127.101,319.324,127.101z M214.825,154.603    c-10.969,0-19.893-8.924-19.893-19.893s8.924-19.893,19.893-19.893s19.893,8.924,19.893,19.893S225.794,154.603,214.825,154.603z" fill="#525252"/>
	</g>
</g>
<g>
	<g>
		<path d="M164.164,284.769h-53.833c-4.2,0-7.606,3.405-7.606,7.606v27.494c0,4.2,3.405,7.606,7.606,7.606h53.833    c4.2,0,7.606-3.405,7.606-7.606v-27.494C171.769,288.174,168.364,284.769,164.164,284.769z M156.558,312.263h-38.621V299.98    h38.621V312.263z" fill="#525252"/>
	</g>
</g>
<g>
	<g>
		<path d="M319.324,284.769h-53.833c-4.2,0-7.606,3.405-7.606,7.606v27.494c0,4.2,3.405,7.606,7.606,7.606h53.833    c4.2,0,7.606-3.405,7.606-7.606v-27.494C326.93,288.174,323.524,284.769,319.324,284.769z M311.718,312.263h-38.621V299.98h38.621    V312.263z" fill="#525252"/>
	</g>
</g>
<g>
</g>
<g>
</g>
<g>
</g>
<g>
</g>
<g>
</g>
<g>
</g>
<g>
</g>
<g>
</g>
<g>
</g>
<g>
</g>
<g>
</g>
<g>
</g>
<g>
</g>
<g>
</g>
<g>
</g>
</svg>
