<?xml version="1.0" encoding="iso-8859-1"?>
<!-- Generator: Adobe Illustrator 19.0.0, SVG Export Plug-In . SVG Version: 6.00 Build 0)  -->
<svg xmlns="http://www.w3.org/2000/svg" xmlns:xlink="http://www.w3.org/1999/xlink" version="1.1" id="Layer_1" x="0px" y="0px" viewBox="0 0 512 512" style="enable-background:new 0 0 512 512;" xml:space="preserve" width="512px" height="512px">
<g>
	<g>
		<path d="M400.818,69.968c-7.858-6.93-21.624-14.069-42.687-8.758c-11.625,2.922-24.391,9.445-38.141,19.43V63.999L362.663,0    h-106.67H149.338l42.656,63.999V80.64c-13.734-9.984-26.515-16.508-38.125-19.43c-21.062-5.312-34.827,1.828-42.687,8.758    c-17.531,15.469-25.281,47.422-21.266,87.663c3.469,34.812,15.438,70.983,32.375,98.467    c-0.047,63.983,18.515,141.607,69.702,181.232l-42.656,63.999c0,0,36.812,10.671,106.655,10.671    c69.857,0,106.67-10.671,106.67-10.671L319.99,437.33c51.204-39.625,69.767-117.249,69.72-181.232    c16.937-27.468,28.905-63.655,32.374-98.467C426.1,117.39,418.35,85.437,400.818,69.968z M189.197,21.336h66.796h66.811    l-14.219,21.328h-105.17L189.197,21.336z M125.213,213.896c-7.14-18.414-12.093-38.608-14.062-58.374    c-3.234-32.36,2.188-59.007,14.14-69.554c17.25-15.211,47.921,5.844,66.702,21.836v20.194c0,0-54.281,23.102-64.624,73.554    C126.557,205.49,125.838,209.614,125.213,213.896z M341.523,377.847c-9.453,17.827-21.094,32.171-34.578,42.608l-15.718,12.172    l11.015,16.53l24.765,37.141c-16.859,2.266-40.687,4.359-71.014,4.359c-30.312,0-54.141-2.094-71-4.359l24.75-37.141l11.031-16.53    l-15.719-12.172c-13.484-10.438-25.124-24.781-34.577-42.608c-5.844-11.016-10.781-23.25-14.812-36.516h25.672v-85.327h42.655    v21.328h-21.328v63.999h85.327v-85.327h42.671v21.328h-21.328v63.999h47C352.304,354.597,347.351,366.831,341.523,377.847z     M368.382,258.801c-0.172,20.641-2.438,41.797-6.578,61.202h-31.141V298.66h21.328v-63.999h-85.326v85.342h-42.672V298.66h21.343    v-63.999h-85.342v21.343v63.999h-9.797c-4.141-19.405-6.406-40.562-6.578-61.202c-0.156-19.077,1.453-37.397,4.641-52.968    c7.812-38.069,50.609-57.546,52.14-58.218l12.938-5.383v-14.234V63.999h85.327v63.999l-0.156,14.164l13.093,5.453    c1.531,0.672,44.328,20.148,52.125,58.218C366.929,221.403,368.522,239.724,368.382,258.801z M400.849,155.522    c-1.968,19.773-6.921,39.968-14.062,58.374c-0.625-4.273-1.344-8.406-2.156-12.344c-10.344-50.452-64.641-73.554-64.641-73.554    v-20.194c40.345-34.453,59.064-28.586,66.704-21.836C398.663,96.515,404.084,123.162,400.849,155.522z" fill="#525252"/>
	</g>
</g>
<g>
</g>
<g>
</g>
<g>
</g>
<g>
</g>
<g>
</g>
<g>
</g>
<g>
</g>
<g>
</g>
<g>
</g>
<g>
</g>
<g>
</g>
<g>
</g>
<g>
</g>
<g>
</g>
<g>
</g>
</svg>
