<?xml version="1.0" encoding="iso-8859-1"?>
<!-- Generator: Adobe Illustrator 19.0.0, SVG Export Plug-In . SVG Version: 6.00 Build 0)  -->
<svg xmlns="http://www.w3.org/2000/svg" xmlns:xlink="http://www.w3.org/1999/xlink" version="1.1" id="Layer_1" x="0px" y="0px" viewBox="0 0 512 512" style="enable-background:new 0 0 512 512;" xml:space="preserve" width="512px" height="512px">
<g>
	<g>
		<path d="M486.4,196.267H384v-85.333c0-4.713-3.821-8.533-8.533-8.533H332.8V59.733c0-4.713-3.821-8.533-8.533-8.533h-59.733V0    h-17.067v51.2h-59.733c-4.713,0-8.533,3.821-8.533,8.533V102.4h-42.667c-4.713,0-8.533,3.821-8.533,8.533v85.333H25.6    c-4.713,0-8.533,3.821-8.533,8.533v298.667c0,4.713,3.821,8.533,8.533,8.533h110.933h238.933H486.4    c4.713,0,8.533-3.821,8.533-8.533V204.8C494.933,200.087,491.113,196.267,486.4,196.267z M128,494.933H34.133v-281.6H128V494.933z     M196.267,68.267h119.467V102.4H196.267V68.267z M366.933,204.8v290.133H145.067V204.8v-85.333h42.667h136.533h42.667V204.8z     M477.867,494.933H384v-281.6h93.867V494.933z" fill="#525252"/>
	</g>
</g>
<g>
	<g>
		<path d="M452.267,230.4H409.6c-4.713,0-8.533,3.821-8.533,8.533s3.821,8.533,8.533,8.533h42.667c4.713,0,8.533-3.821,8.533-8.533    S456.979,230.4,452.267,230.4z" fill="#525252"/>
	</g>
</g>
<g>
	<g>
		<path d="M452.267,264.533H409.6c-4.713,0-8.533,3.821-8.533,8.533c0,4.713,3.821,8.533,8.533,8.533h42.667    c4.713,0,8.533-3.821,8.533-8.533C460.8,268.354,456.979,264.533,452.267,264.533z" fill="#525252"/>
	</g>
</g>
<g>
	<g>
		<path d="M452.267,298.667H409.6c-4.713,0-8.533,3.821-8.533,8.533s3.821,8.533,8.533,8.533h42.667    c4.713,0,8.533-3.821,8.533-8.533S456.979,298.667,452.267,298.667z" fill="#525252"/>
	</g>
</g>
<g>
	<g>
		<path d="M452.267,332.8H409.6c-4.713,0-8.533,3.821-8.533,8.533c0,4.713,3.821,8.533,8.533,8.533h42.667    c4.713,0,8.533-3.821,8.533-8.533C460.8,336.621,456.979,332.8,452.267,332.8z" fill="#525252"/>
	</g>
</g>
<g>
	<g>
		<path d="M452.267,366.933H409.6c-4.713,0-8.533,3.821-8.533,8.533S404.887,384,409.6,384h42.667c4.713,0,8.533-3.821,8.533-8.533    S456.979,366.933,452.267,366.933z" fill="#525252"/>
	</g>
</g>
<g>
	<g>
		<path d="M452.267,401.067H409.6c-4.713,0-8.533,3.821-8.533,8.533s3.821,8.533,8.533,8.533h42.667    c4.713,0,8.533-3.821,8.533-8.533S456.979,401.067,452.267,401.067z" fill="#525252"/>
	</g>
</g>
<g>
	<g>
		<path d="M452.267,435.2H409.6c-4.713,0-8.533,3.821-8.533,8.533s3.821,8.533,8.533,8.533h42.667c4.713,0,8.533-3.821,8.533-8.533    S456.979,435.2,452.267,435.2z" fill="#525252"/>
	</g>
</g>
<g>
	<g>
		<path d="M452.267,469.333H409.6c-4.713,0-8.533,3.821-8.533,8.533s3.821,8.533,8.533,8.533h42.667    c4.713,0,8.533-3.821,8.533-8.533S456.979,469.333,452.267,469.333z" fill="#525252"/>
	</g>
</g>
<g>
	<g>
		<path d="M170.667,136.533c-4.713,0-8.533,3.821-8.533,8.533v324.425c0,4.713,3.821,8.533,8.533,8.533    c4.713,0,8.533-3.821,8.533-8.533V145.067C179.2,140.354,175.379,136.533,170.667,136.533z" fill="#525252"/>
	</g>
</g>
<g>
	<g>
		<path d="M213.333,136.533c-4.713,0-8.533,3.821-8.533,8.533v324.425c0,4.713,3.821,8.533,8.533,8.533s8.533-3.821,8.533-8.533    V145.067C221.867,140.354,218.046,136.533,213.333,136.533z" fill="#525252"/>
	</g>
</g>
<g>
	<g>
		<path d="M256,136.533c-4.713,0-8.533,3.821-8.533,8.533v324.425c0,4.713,3.821,8.533,8.533,8.533s8.533-3.821,8.533-8.533V145.067    C264.533,140.354,260.713,136.533,256,136.533z" fill="#525252"/>
	</g>
</g>
<g>
	<g>
		<path d="M298.667,136.533c-4.713,0-8.533,3.821-8.533,8.533v324.425c0,4.713,3.821,8.533,8.533,8.533s8.533-3.821,8.533-8.533    V145.067C307.2,140.354,303.379,136.533,298.667,136.533z" fill="#525252"/>
	</g>
</g>
<g>
	<g>
		<path d="M341.333,136.533c-4.713,0-8.533,3.821-8.533,8.533v324.425c0,4.713,3.821,8.533,8.533,8.533s8.533-3.821,8.533-8.533    V145.067C349.867,140.354,346.046,136.533,341.333,136.533z" fill="#525252"/>
	</g>
</g>
<g>
	<g>
		<path d="M102.4,247.467H59.733c-4.713,0-8.533,3.821-8.533,8.533v76.8c0,4.713,3.821,8.533,8.533,8.533H102.4    c4.713,0,8.533-3.821,8.533-8.533V256C110.933,251.287,107.113,247.467,102.4,247.467z M93.867,324.267h-25.6v-59.733h25.6    V324.267z" fill="#525252"/>
	</g>
</g>
<g>
	<g>
		<path d="M102.4,375.467H59.733c-4.713,0-8.533,3.821-8.533,8.533v76.8c0,4.713,3.821,8.533,8.533,8.533H102.4    c4.713,0,8.533-3.821,8.533-8.533V384C110.933,379.287,107.113,375.467,102.4,375.467z M93.867,452.267h-25.6v-59.733h25.6    V452.267z" fill="#525252"/>
	</g>
</g>
<g>
</g>
<g>
</g>
<g>
</g>
<g>
</g>
<g>
</g>
<g>
</g>
<g>
</g>
<g>
</g>
<g>
</g>
<g>
</g>
<g>
</g>
<g>
</g>
<g>
</g>
<g>
</g>
<g>
</g>
</svg>
